<svg width="33" height="24" viewBox="0 0 33 24" fill="none" xmlns="http://www.w3.org/2000/svg">
<path d="M32.4997 1.84615C31.8761 0.746769 30.7286 0 29.3993 0H16.7996V1.84615H32.4997ZM0.599976 18.4615H32.9992V20.3077H0.599976V18.4615ZM16.7996 11.0769H32.9992V12.9231H16.7996V11.0769ZM16.7996 7.38462H32.9992V9.23077H16.7996V7.38462ZM0.599976 14.7692H32.9992V16.6154H0.599976V14.7692ZM4.19989 24H29.3993C30.7286 24 31.8761 23.2532 32.4997 22.1538H1.09946C1.72315 23.2532 2.87062 24 4.19989 24ZM16.7996 3.69231H32.9992V5.53846H16.7996V3.69231Z" fill="#B22334"/>
<path d="M0.661174 20.9345C0.676474 21.0203 0.693573 21.1062 0.714273 21.1902C0.737672 21.2834 0.766472 21.3729 0.797071 21.4634C0.877169 21.7025 0.974367 21.9332 1.09676 22.1492L1.09946 22.1538H32.4997L32.5015 22.1502C32.6223 21.9325 32.7224 21.7035 32.8003 21.4662C32.8596 21.2929 32.9053 21.1151 32.9371 20.9345C32.974 20.7314 32.9992 20.5228 32.9992 20.3077H0.599976C0.599976 20.5228 0.625175 20.7305 0.661174 20.9345ZM0.599976 16.6154H32.9992V18.4615H0.599976V16.6154ZM0.599976 12.9231V14.7692H32.9992V12.9231H16.7996H0.599976ZM16.7996 9.23077H32.9992V11.0769H16.7996V9.23077ZM16.7996 5.53846H32.9992V7.38461H16.7996V5.53846ZM0.715173 2.80985C0.737672 2.71569 0.769172 2.62615 0.797971 2.53569C0.766717 2.62587 0.739095 2.71733 0.715173 2.80985ZM16.7996 3.69231H32.9992C32.9992 3.47723 32.974 3.26861 32.9371 3.06461C32.9056 2.88379 32.8596 2.70595 32.7994 2.53292C32.7214 2.2946 32.6211 2.0646 32.4997 1.84615H16.7996V3.69231Z" fill="#EEEEEE"/>
<path d="M16.7996 0H4.19989C3.24514 0 2.32948 0.38901 1.65437 1.08145C0.979252 1.77389 0.599976 2.71305 0.599976 3.69231L0.599976 12.9231H16.7996V0Z" fill="#3C3B6E"/>
<path d="M2.40094 2.51635L2.95713 2.93081L2.74473 3.60004L3.30002 3.1865L3.85621 3.60004L3.64381 2.93081L4.2 2.51635H3.51241L3.30002 1.84619L3.08852 2.51635H2.40094ZM4.2009 4.3625L4.75709 4.77696L4.54469 5.44619L5.09998 5.03265L5.65616 5.44619L5.44377 4.77696L5.99996 4.3625H5.31237L5.09998 3.69235L4.88848 4.3625H4.2009ZM7.80082 4.3625L8.357 4.77696L8.14461 5.44619L8.69989 5.03265L9.25608 5.44619L9.04369 4.77696L9.59987 4.3625H8.91229L8.69989 3.69235L8.4884 4.3625H7.80082ZM11.4007 4.3625L11.9569 4.77696L11.7445 5.44619L12.2998 5.03265L12.856 5.44619L12.6436 4.77696L13.1998 4.3625H12.5122L12.2998 3.69235L12.0883 4.3625H11.4007ZM4.2009 8.05481L4.75709 8.46927L4.54469 9.1385L5.09998 8.72496L5.65616 9.1385L5.44377 8.46927L5.99996 8.05481H5.31237L5.09998 7.38465L4.88848 8.05481H4.2009ZM7.80082 8.05481L8.357 8.46927L8.14461 9.1385L8.69989 8.72496L9.25608 9.1385L9.04369 8.46927L9.59987 8.05481H8.91229L8.69989 7.38465L8.4884 8.05481H7.80082ZM11.4007 8.05481L11.9569 8.46927L11.7445 9.1385L12.2998 8.72496L12.856 9.1385L12.6436 8.46927L13.1998 8.05481H12.5122L12.2998 7.38465L12.0883 8.05481H11.4007ZM6.00086 2.51635L6.55704 2.93081L6.34465 3.60004L6.89994 3.1865L7.45612 3.60004L7.24373 2.93081L7.79991 2.51635H7.11233L6.89994 1.84619L6.68844 2.51635H6.00086ZM9.60077 2.51635L10.157 2.93081L9.94456 3.60004L10.4999 3.1865L11.056 3.60004L10.8436 2.93081L11.3998 2.51635H10.7122L10.4999 1.84619L10.2884 2.51635H9.60077ZM13.2007 2.51635L13.7569 2.93081L13.5445 3.60004L14.0998 3.1865L14.656 3.60004L14.4436 2.93081L14.9997 2.51635H14.3122L14.0998 1.84619L13.8883 2.51635H13.2007ZM2.40094 6.20865L2.95713 6.62311L2.74473 7.29235L3.30002 6.87881L3.85621 7.29235L3.64381 6.62311L4.2 6.20865H3.51241L3.30002 5.5385L3.08852 6.20865H2.40094ZM6.34465 7.29235L6.89994 6.87881L7.45612 7.29235L7.24373 6.62311L7.79991 6.20865H7.11233L6.89994 5.5385L6.68844 6.20865H6.00086L6.55704 6.62311L6.34465 7.29235ZM9.60077 6.20865L10.157 6.62311L9.94456 7.29235L10.4999 6.87881L11.056 7.29235L10.8436 6.62311L11.3998 6.20865H10.7122L10.4999 5.5385L10.2884 6.20865H9.60077ZM13.2007 6.20865L13.7569 6.62311L13.5445 7.29235L14.0998 6.87881L14.656 7.29235L14.4436 6.62311L14.9997 6.20865H14.3122L14.0998 5.5385L13.8883 6.20865H13.2007ZM2.40094 9.90096L2.95713 10.3154L2.74473 10.9847L3.30002 10.5711L3.85621 10.9847L3.64381 10.3154L4.2 9.90096H3.51241L3.30002 9.23081L3.08852 9.90096H2.40094ZM6.34465 10.9847L6.89994 10.5711L7.45612 10.9847L7.24373 10.3154L7.79991 9.90096H7.11233L6.89994 9.23081L6.68844 9.90096H6.00086L6.55704 10.3154L6.34465 10.9847ZM9.60077 9.90096L10.157 10.3154L9.94456 10.9847L10.4999 10.5711L11.056 10.9847L10.8436 10.3154L11.3998 9.90096H10.7122L10.4999 9.23081L10.2884 9.90096H9.60077ZM13.2007 9.90096L13.7569 10.3154L13.5445 10.9847L14.0998 10.5711L14.656 10.9847L14.4436 10.3154L14.9997 9.90096H14.3122L14.0998 9.23081L13.8883 9.90096H13.2007Z" fill="white"/>
</svg>
