<svg width="34" height="24" viewBox="0 0 34 24" fill="none" xmlns="http://www.w3.org/2000/svg">
<path d="M33.2308 20.3077C33.2308 21.287 32.8418 22.2261 32.1493 22.9185C31.4569 23.611 30.5177 24 29.5385 24H3.69231C2.71305 24 1.77389 23.611 1.08145 22.9185C0.38901 22.2261 0 21.287 0 20.3077V3.69231C0 2.71305 0.38901 1.77389 1.08145 1.08145C1.77389 0.38901 2.71305 0 3.69231 0H29.5385C30.5177 0 31.4569 0.38901 32.1493 1.08145C32.8418 1.77389 33.2308 2.71305 33.2308 3.69231V20.3077Z" fill="#EEEEEE"/>
<path d="M19.7917 7.46308C18.5884 6.62072 17.0998 6.29084 15.6533 6.546C14.2068 6.80116 12.9209 7.62047 12.0785 8.8237C11.6807 9.4259 11.5336 10.1596 11.6686 10.8686C11.8035 11.5776 12.2099 12.2059 12.8011 12.6198C13.3924 13.0338 14.1218 13.2006 14.8342 13.0848C15.5466 12.9691 16.1856 12.5798 16.6154 12C16.824 11.7021 17.0893 11.4482 17.396 11.2528C17.7027 11.0574 18.045 10.9244 18.4031 10.8613C18.7613 10.7981 19.1284 10.8062 19.4834 10.8849C19.8385 10.9636 20.1746 11.1115 20.4725 11.3202C20.7704 11.5288 21.0243 11.794 21.2196 12.1008C21.415 12.4075 21.5481 12.7497 21.6112 13.1079C21.6743 13.4661 21.6663 13.8331 21.5876 14.1882C21.5088 14.5433 21.3609 14.8793 21.1523 15.1772C21.5696 14.5814 21.8653 13.9092 22.0228 13.199C22.1802 12.4889 22.1962 11.7547 22.0698 11.0383C21.9435 10.322 21.6773 9.63755 21.2864 9.02411C20.8955 8.41066 20.3876 7.88022 19.7917 7.46308Z" fill="#C60C30"/>
<path d="M20.472 11.3206C19.8705 10.8993 19.1262 10.7342 18.403 10.8616C17.6797 10.989 17.0367 11.3985 16.6154 12C16.1867 12.5829 15.5469 12.9749 14.833 13.0922C14.119 13.2095 13.3874 13.0428 12.7948 12.6278C12.2021 12.2127 11.7953 11.5822 11.6615 10.8712C11.5276 10.1601 11.6773 9.4249 12.0784 8.82275C11.649 9.41794 11.3422 10.0925 11.1758 10.8073C11.0093 11.5221 10.9866 12.2629 11.109 12.9865C11.2313 13.7102 11.4963 14.4023 11.8884 15.0226C12.2806 15.643 12.7921 16.1792 13.3933 16.6002C13.9945 17.0211 14.6734 17.3184 15.3905 17.4747C16.1076 17.631 16.8486 17.6432 17.5704 17.5106C18.2922 17.378 18.9805 17.1033 19.5953 16.7024C20.21 16.3015 20.739 15.7825 21.1514 15.1754C21.36 14.8777 21.508 14.5418 21.5868 14.187C21.6656 13.8321 21.6736 13.4652 21.6105 13.1072C21.5475 12.7492 21.4144 12.4071 21.2191 12.1006C21.0237 11.794 20.7698 11.529 20.472 11.3206Z" fill="#003478"/>
<path d="M22.4621 18.9896L24.2418 16.8683L24.9489 17.4619L23.1692 19.5831L22.4621 18.9896ZM24.8344 16.1622L26.6141 14.0419L27.3212 14.6354L25.5415 16.7557L24.8344 16.1622ZM23.8763 20.1785L25.656 18.0582L26.363 18.6517L24.5834 20.772L23.8763 20.1785ZM26.2504 17.3483L28.032 15.228L28.739 15.8225L26.9575 17.9419L26.2504 17.3483ZM25.2895 21.3656L27.071 19.2452L27.7772 19.8388L25.9966 21.9591L25.2895 21.3656ZM27.6627 18.5363L29.4415 16.4132L30.1495 17.0068L28.3707 19.1299L27.6627 18.5363ZM27.6664 5.46371L28.3735 4.87017L30.155 6.99233L29.447 7.58587L27.6664 5.46371ZM25.2923 2.63356L25.9994 2.04002L27.779 4.16217L27.071 4.75479L25.2923 2.63356ZM23.8772 3.82248L24.5843 3.22894L28.7381 8.17848L28.031 8.77202L23.8772 3.82248ZM22.463 5.00771L23.171 4.41417L24.9498 6.5354L24.2427 7.12802L22.463 5.00771ZM24.8354 7.83694L25.5424 7.2434L27.324 9.36371L26.6178 9.95725L24.8354 7.83694ZM5.90766 14.6345L6.61474 14.0409L10.7677 18.9914L10.0597 19.5849L5.90766 14.6345ZM4.49535 15.8216L5.20151 15.2289L6.98212 17.3502L6.27412 17.9437L4.49535 15.8216ZM6.86489 18.6517L7.57197 18.0582L9.35351 20.1785L8.64643 20.772L6.86489 18.6517ZM3.07935 17.0077L3.78643 16.4142L7.94028 21.3637L7.23228 21.9572L3.07935 17.0077ZM3.07843 6.99048L7.23043 2.04094L7.93843 2.63356L3.78458 7.58402L3.07843 6.99048ZM4.49258 8.17848L8.64643 3.22802L9.35351 3.82156L5.19966 8.7711L4.49258 8.17848ZM5.90766 9.36464L10.0615 4.41417L10.7686 5.00771L6.61474 9.95817L5.90766 9.36464Z" fill="#292F33"/>
</svg>
