<svg width="34" height="24" viewBox="0 0 34 24" fill="none" xmlns="http://www.w3.org/2000/svg">
<path d="M33.2308 20.3077C33.2308 21.287 32.8418 22.2261 32.1493 22.9185C31.4569 23.611 30.5177 24 29.5385 24H3.69231C2.71305 24 1.77389 23.611 1.08145 22.9185C0.38901 22.2261 0 21.287 0 20.3077V3.69231C0 2.71305 0.38901 1.77389 1.08145 1.08145C1.77389 0.38901 2.71305 0 3.69231 0H29.5385C30.5177 0 31.4569 0.38901 32.1493 1.08145C32.8418 1.77389 33.2308 2.71305 33.2308 3.69231V20.3077Z" fill="#006600"/>
<path d="M29.5384 0H13.8461V24H29.5384C30.5177 24 31.4569 23.611 32.1493 22.9185C32.8417 22.2261 33.2307 21.287 33.2307 20.3077V3.69231C33.2307 2.71305 32.8417 1.77389 32.1493 1.08145C31.4569 0.38901 30.5177 0 29.5384 0Z" fill="#D52B1E"/>
<path d="M13.8462 4.61539C11.8876 4.61539 10.0093 5.39341 8.62445 6.77829C7.23957 8.16317 6.46155 10.0415 6.46155 12C6.46155 13.9585 7.23957 15.8368 8.62445 17.2217C10.0093 18.6066 11.8876 19.3846 13.8462 19.3846C15.8047 19.3846 17.683 18.6066 19.0679 17.2217C20.4528 15.8368 21.2308 13.9585 21.2308 12C21.2308 10.0415 20.4528 8.16317 19.0679 6.77829C17.683 5.39341 15.8047 4.61539 13.8462 4.61539ZM8.20339 8.856L9.68216 10.3348L7.41139 11.4702C7.48468 10.552 7.7548 9.66043 8.20339 8.856ZM7.41139 12.5289L11.4729 14.5662L8.97509 16.2314L8.98801 16.2508C8.0759 15.212 7.52301 13.9068 7.41139 12.5289ZM12.9231 18.3877C12.0769 18.267 11.2634 17.9782 10.5305 17.5385H12.9231V18.3877ZM12.9231 16.6154H10.0625L12.9231 14.7083V16.6154ZM12.9231 13.5988L12.3628 13.9726L8.41662 12L10.3699 11.0234L12.9231 13.5757V13.5988ZM12.9231 12.2705L9.65262 9L12.9231 9.54462V12.2705ZM12.9231 8.58554L8.83201 7.92739C9.85567 6.66824 11.3166 5.84152 12.9231 5.61231V8.58554ZM19.4889 8.856C19.9377 9.66071 20.2078 10.5526 20.2809 11.4711L18.0102 10.3357L19.4889 8.856ZM14.7692 5.61231C16.3756 5.84187 17.8364 6.66852 18.8603 7.92739L14.7692 8.58554V5.61231ZM14.7692 9.54462L18.0397 8.99908L14.7692 12.2705V9.54462ZM14.7692 13.5757L17.3215 11.0234L19.2757 12L15.3305 13.9726L14.7692 13.5988V13.5757ZM14.7692 18.3877V17.5385H17.1619C16.4289 17.9782 15.6154 18.267 14.7692 18.3877ZM14.7692 16.6154V14.7083L17.6299 16.6154H14.7692ZM18.7052 16.2508L18.7182 16.2314L16.2203 14.5662L20.2819 12.5289C20.1694 13.9066 19.6166 15.2115 18.7052 16.2508Z" fill="#FFCC4D"/>
<path d="M10.1539 7.38461V13.8462C10.1539 14.8254 10.5429 15.7646 11.2353 16.457C11.9278 17.1494 12.8669 17.5385 13.8462 17.5385C14.8254 17.5385 15.7646 17.1494 16.457 16.457C17.1495 15.7646 17.5385 14.8254 17.5385 13.8462V7.38461H10.1539Z" fill="#D52B1E"/>
<path d="M11.0769 8.30769V13.8462C11.0769 14.5806 11.3687 15.285 11.888 15.8043C12.4073 16.3236 13.1117 16.6154 13.8461 16.6154C14.5806 16.6154 15.2849 16.3236 15.8043 15.8043C16.3236 15.285 16.6154 14.5806 16.6154 13.8462V8.30769H11.0769Z" fill="white"/>
<path d="M12 11.0769H15.6923V12.9231H12V11.0769Z" fill="#829ACD"/>
<path d="M12.9231 10.1538H14.7692V13.8461H12.9231V10.1538Z" fill="#829ACD"/>
<path d="M11.0769 11.0769H12V12.9231H11.0769V11.0769ZM12.9231 11.0769H14.7692V12.9231H12.9231V11.0769ZM15.6923 11.0769H16.6154V12.9231H15.6923V11.0769ZM12.9231 13.8462H14.7692V15.6923H12.9231V13.8462ZM12.9231 8.30769H14.7692V10.1538H12.9231V8.30769Z" fill="#003399"/>
</svg>
