<svg width="34" height="24" viewBox="0 0 34 24" fill="none" xmlns="http://www.w3.org/2000/svg">
<path d="M33.2308 20.3077C33.2308 21.287 32.8418 22.2261 32.1493 22.9185C31.4569 23.611 30.5177 24 29.5385 24H3.69231C2.71305 24 1.77389 23.611 1.08145 22.9185C0.38901 22.2261 0 21.287 0 20.3077V3.69231C0 2.71305 0.38901 1.77389 1.08145 1.08145C1.77389 0.38901 2.71305 0 3.69231 0H29.5385C30.5177 0 31.4569 0.38901 32.1493 1.08145C32.8418 1.77389 33.2308 2.71305 33.2308 3.69231V20.3077Z" fill="#DD2E44"/>
<path d="M0.512308 22.1538H32.7194C33.0506 21.5947 33.2271 20.9575 33.2308 20.3077H0C0 20.9834 0.194769 21.6083 0.512308 22.1538ZM0 16.6154H33.2308V18.4615H0V16.6154ZM0 12.9231H33.2308V14.7692H0V12.9231ZM0 9.23075H33.2308V11.0769H0V9.23075ZM0 5.53844H33.2308V7.38459H0V5.53844ZM0.512308 1.84613C0.180228 2.40493 0.00336791 3.04226 0 3.69228H33.2308C33.2308 3.01659 33.036 2.39075 32.7185 1.84613H0.512308Z" fill="#EEEEEE"/>
<path d="M16.6154 0H3.69231C2.71305 0 1.77389 0.38901 1.08145 1.08145C0.38901 1.77389 0 2.71305 0 3.69231L0 12.9231H16.6154V0Z" fill="#010066"/>
<path d="M8.80059 11.292C7.53582 11.2674 6.33115 10.7477 5.44536 9.84463C4.55956 8.94152 4.0633 7.72702 4.06318 6.46201C4.06306 5.197 4.55909 3.98241 5.44471 3.07913C6.33034 2.17585 7.5349 1.65594 8.79967 1.6311C9.45967 1.6311 10.0892 1.76587 10.6624 2.00494C9.71423 1.30191 8.56499 0.922604 7.38459 0.923096C5.9157 0.923096 4.50697 1.50661 3.46831 2.54527C2.42965 3.58394 1.84613 4.99267 1.84613 6.46156C1.84613 7.93045 2.42965 9.33918 3.46831 10.3778C4.50697 11.4165 5.9157 12 7.38459 12C8.56499 12.0005 9.71423 11.6212 10.6624 10.9182C10.0728 11.1653 9.43989 11.2924 8.80059 11.292Z" fill="#FFCC4D"/>
<path d="M11.928 3.53442L12.2363 5.02981L13.1622 3.81596L12.7911 5.29658L14.1526 4.60519L13.1751 5.77842L14.7019 5.74612L13.3126 6.37935L14.7019 7.01258L13.1751 6.98027L14.1526 8.1535L12.7911 7.46212L13.1622 8.94365L12.2363 7.72889L11.928 9.22519L11.6197 7.72889L10.6939 8.94365L11.0649 7.46212L9.70341 8.1535L10.68 6.98027L9.15417 7.01258L10.5434 6.37935L9.15417 5.74612L10.68 5.77842L9.70341 4.60519L11.0649 5.29658L10.6939 3.81596L11.6197 5.02981L11.928 3.53442Z" fill="#FFCC4D"/>
</svg>
