<svg width="34" height="24" viewBox="0 0 34 24" fill="none" xmlns="http://www.w3.org/2000/svg">
<path d="M33.2308 20.3077C33.2308 21.287 32.8418 22.2261 32.1493 22.9185C31.4569 23.611 30.5177 24 29.5385 24H3.69231C2.71305 24 1.77389 23.611 1.08145 22.9185C0.38901 22.2261 0 21.287 0 20.3077V3.69231C0 2.71305 0.38901 1.77389 1.08145 1.08145C1.77389 0.38901 2.71305 0 3.69231 0H29.5385C30.5177 0 31.4569 0.38901 32.1493 1.08145C32.8418 1.77389 33.2308 2.71305 33.2308 3.69231V20.3077Z" fill="#E30917"/>
<path d="M14.7692 17.5384C13.3003 17.5384 11.8916 16.9549 10.8529 15.9163C9.81427 14.8776 9.23076 13.4689 9.23076 12C9.23076 10.5311 9.81427 9.12235 10.8529 8.08369C11.8916 7.04502 13.3003 6.46151 14.7692 6.46151C15.9785 6.46151 17.0954 6.85382 18.0065 7.51197C17.3712 6.78942 16.5893 6.2106 15.7127 5.8141C14.8362 5.4176 13.8851 5.21254 12.9231 5.21259C11.1229 5.21259 9.39654 5.92768 8.12366 7.20056C6.85078 8.47345 6.13568 10.1998 6.13568 12C6.13556 12.8914 6.31103 13.7741 6.65208 14.5977C6.99312 15.4213 7.49305 16.1696 8.12333 16.8C8.75361 17.4303 9.50189 17.9304 10.3254 18.2715C11.149 18.6127 12.0317 18.7883 12.9231 18.7883C14.9492 18.7883 16.7631 17.8957 18.0065 16.488C17.0654 17.1713 15.9322 17.5391 14.7692 17.5384ZM18.3812 12.2123L20.6335 12.731L20.8366 15.0323L22.0255 13.0514L24.2778 13.5692L22.7603 11.8264L23.9483 9.84458L21.8225 10.7492L20.3049 9.00551L20.508 11.3077L18.3812 12.2123Z" fill="#EEEEEE"/>
</svg>
