<svg width="34" height="25" viewBox="0 0 34 25" fill="none" xmlns="http://www.w3.org/2000/svg">
<path d="M0 20.677C0 21.674 0.38901 22.6302 1.08145 23.3353C1.77389 24.0403 2.71305 24.4364 3.69231 24.4364H29.5385C30.5177 24.4364 31.4569 24.0403 32.1493 23.3353C32.8418 22.6302 33.2308 21.674 33.2308 20.677V16.9175H0V20.677Z" fill="#FFCD05"/>
<path d="M0 8.45874H33.2308V16.9175H0V8.45874Z" fill="#ED1F24"/>
<path d="M29.5385 0H3.69231C2.71305 0 1.77389 0.396083 1.08145 1.10111C0.38901 1.80615 0 2.76237 0 3.75944L0 8.45874H33.2308V3.75944C33.2308 2.76237 32.8418 1.80615 32.1493 1.10111C31.4569 0.396083 30.5177 0 29.5385 0Z" fill="#141414"/>
</svg>
