<svg width="34" height="24" viewBox="0 0 34 24" fill="none" xmlns="http://www.w3.org/2000/svg">
<path d="M33.2308 20.3077C33.2308 21.287 32.8418 22.2261 32.1493 22.9186C31.4569 23.611 30.5177 24 29.5385 24H3.69231C2.71305 24 1.77389 23.611 1.08145 22.9186C0.38901 22.2261 0 21.287 0 20.3077V16.6154H33.2308V20.3077Z" fill="#CE2028"/>
<path d="M0 7.38461H33.2308V16.6154H0V7.38461Z" fill="#22408C"/>
<path d="M29.5385 0H3.69231C2.71305 0 1.77389 0.38901 1.08145 1.08145C0.38901 1.77389 0 2.71305 0 3.69231L0 7.38462H33.2308V3.69231C33.2308 2.71305 32.8418 1.77389 32.1493 1.08145C31.4569 0.38901 30.5177 0 29.5385 0Z" fill="#EEEEEE"/>
</svg>
