<svg width="34" height="24" viewBox="0 0 34 24" fill="none" xmlns="http://www.w3.org/2000/svg">
<path d="M29.5385 0H3.69231C2.71305 0 1.77389 0.38901 1.08145 1.08145C0.38901 1.77389 0 2.71305 0 3.69231L0 20.3077C0 21.287 0.38901 22.2261 1.08145 22.9185C1.77389 23.611 2.71305 24 3.69231 24H29.5385C30.5177 24 31.4569 23.611 32.1493 22.9185C32.8418 22.2261 33.2308 21.287 33.2308 20.3077V3.69231C33.2308 2.71305 32.8418 1.77389 32.1493 1.08145C31.4569 0.38901 30.5177 0 29.5385 0Z" fill="#006C35"/>
<path d="M8.23296 8.35381C8.81634 8.40919 8.49419 7.36704 8.70557 7.1778C8.74527 7.08457 8.81911 7.08365 8.82465 7.2018V8.08611C8.81911 8.37411 9.00834 8.45811 9.15511 8.51811C9.30834 8.50611 9.40988 8.51165 9.46988 8.66027L9.54188 10.1907C9.54188 10.1907 9.89634 10.2923 9.91296 9.3295C9.9305 8.76457 9.80034 8.29196 9.87696 8.18211C9.87973 8.07411 10.0173 8.06765 10.1133 8.12027C10.2656 8.22734 10.3339 8.36027 10.5702 8.30765C10.9311 8.20888 11.1471 8.0335 11.1527 7.75657C11.1314 7.4935 11.1019 7.23042 10.9883 6.96734C11.004 6.91934 10.9191 6.79565 10.9348 6.74765C10.9994 6.84919 11.0982 6.84088 11.1203 6.74765C11.0594 6.5455 10.9643 6.35165 10.8093 6.26765C10.6819 6.15504 10.4954 6.17811 10.4271 6.41257C10.3957 6.68211 10.525 7.00334 10.7207 7.26457C10.7622 7.36704 10.8213 7.53688 10.7954 7.69011C10.6911 7.74919 10.5859 7.72519 10.4991 7.63288C10.4991 7.63288 10.212 7.41781 10.212 7.36981C10.2887 6.88242 10.2296 6.82704 10.1871 6.69227C10.1576 6.5058 10.069 6.44581 9.99696 6.31842C9.92496 6.24273 9.82803 6.24273 9.78188 6.31842C9.6545 6.53811 9.71357 7.01073 9.80588 7.22211C9.87142 7.41596 9.97296 7.53873 9.92496 7.53873C9.88527 7.64857 9.80403 7.62273 9.74496 7.49627C9.66004 7.23411 9.64342 6.84365 9.64342 6.66734C9.61757 6.4495 9.58988 5.98334 9.4468 5.86519C9.35911 5.74611 9.22896 5.80334 9.18373 5.91319C9.1745 6.12919 9.17265 6.34611 9.19757 6.54642C9.29542 6.89627 9.3268 7.20457 9.3748 7.56365C9.38773 8.04457 9.09696 7.77227 9.10988 7.53411C9.17727 7.22488 9.15973 6.7375 9.09973 6.6138C9.05265 6.49104 8.99634 6.45965 8.88188 6.47996C8.79142 6.47257 8.55696 6.72919 8.4905 7.1538C8.4905 7.1538 8.43419 7.37257 8.41019 7.56734C8.37788 7.78704 8.23388 7.94211 8.13234 7.53688C8.04465 7.24242 7.99111 6.51596 7.84434 6.6858C7.80188 7.2535 7.75111 8.25227 8.23296 8.35381Z" fill="white"/>
<path d="M9.11078 8.76822C8.63078 8.77745 7.92832 9.39868 7.90894 9.74299C8.41478 9.4993 8.91232 9.26484 9.4274 9.01376C9.34432 8.88914 9.42278 8.77745 9.11078 8.76822Z" fill="white"/>
<path d="M11.7573 10.6301C11.9797 9.88886 11.7213 9.3424 11.8422 9.34517C12.0979 9.62117 12.4561 9.38209 12.5345 9.28609C12.5687 9.23809 12.6527 9.20671 12.7117 9.26948C12.9121 9.41348 13.2647 9.34517 13.3376 9.09225C13.3837 8.83822 13.4121 8.58129 13.4225 8.32332C13.2591 8.37409 13.1373 8.40825 13.1262 8.47563L13.0921 8.69532C13.0782 8.7664 12.937 8.76917 12.9314 8.67871C12.8696 8.39717 12.613 8.36024 12.4579 8.79686C12.3536 8.88178 12.1653 8.8984 12.145 8.77194C12.1699 8.47932 12.0517 8.43963 11.8154 8.57717C11.7397 7.99655 11.6631 7.44178 11.5874 6.86117C11.6862 6.8584 11.7767 6.93132 11.8662 6.81871C11.7674 6.51132 11.5588 5.88363 11.4434 5.8384C11.3871 5.77009 11.3391 5.81255 11.2662 5.83009C11.1425 5.86978 11.0271 5.97686 11.0631 6.18455C11.2099 7.07532 11.3059 7.75378 11.4517 8.64455C11.4739 8.74886 11.3871 8.8864 11.2745 8.87255C11.0834 8.74332 11.0354 8.48117 10.7087 8.49224C10.4714 8.49501 10.201 8.75163 10.1677 8.99994C10.1281 9.19655 10.1142 9.41071 10.1677 9.58332C10.3339 9.78271 10.5342 9.76332 10.7087 9.71809C10.8517 9.65901 10.9708 9.51501 11.0207 9.54917C11.0548 9.59071 11.029 10.0642 10.345 10.4279C9.93051 10.6135 9.60098 10.6559 9.42374 10.3181C9.3139 10.1067 9.43205 9.30363 9.16159 9.49009C8.36128 11.5532 11.0354 11.8393 11.3345 9.57501C11.3631 9.48178 11.4757 9.38855 11.4951 9.54086C11.4333 11.5919 9.42651 11.7332 9.0859 11.0879C9.00098 10.9356 8.97605 10.5978 8.96775 10.3947C8.91698 9.99132 8.70559 10.1464 8.67236 10.5461C8.63821 10.7686 8.64744 10.8313 8.64744 11.0446C8.75359 12.6646 11.3382 11.9686 11.7573 10.6301ZM10.7604 9.22886C10.7437 9.26025 10.6708 9.24732 10.6173 9.24732C10.5564 9.24455 10.5277 9.2344 10.4908 9.18548C10.4742 9.13009 10.5259 9.07748 10.549 9.03594C10.5776 8.98701 10.7317 8.93625 10.7862 9.07286C10.7963 9.09879 10.7992 9.12696 10.7947 9.1544C10.7901 9.18185 10.7783 9.20757 10.7604 9.22886Z" fill="white"/>
<path d="M12.5557 7.39292C12.7163 7.33385 13.4779 6.46339 13.4779 6.46339C13.4382 6.42923 13.4031 6.40431 13.3634 6.37016C13.3209 6.33323 13.3256 6.29631 13.3634 6.26031C13.5517 6.15046 13.4917 5.90954 13.3929 5.79969C13.3291 5.76835 13.2587 5.75237 13.1876 5.75301C13.1164 5.75365 13.0464 5.7709 12.9831 5.80339C12.8511 5.92985 12.8197 6.13292 12.924 6.26031C13.0256 6.30831 13.1271 6.41077 13.0597 6.46708C12.7486 6.79939 11.8957 7.37262 11.9945 7.39292C12.0157 7.42062 12.5391 7.41969 12.5557 7.39292ZM13.1197 6.02585C13.1686 6.01385 13.2314 6.05723 13.2609 6.12185C13.2905 6.18646 13.2748 6.24831 13.2268 6.26031H13.2249C13.1769 6.27231 13.1142 6.22892 13.0846 6.16431C13.056 6.09877 13.0717 6.03785 13.1197 6.02585ZM8.18032 11.3151C8.05478 11.5708 8.00216 11.3954 7.99109 11.2523C7.97666 11.012 7.98874 10.7709 8.02709 10.5332C8.05847 10.3302 8.02709 10.392 7.96247 10.4742C7.67724 10.9283 7.65232 11.6077 7.81017 11.8098C7.89324 11.9058 8.03078 11.9483 8.13324 11.9169C8.31232 11.8394 8.39078 11.4757 8.34832 11.3437C8.2874 11.2505 8.24032 11.2357 8.18032 11.3151ZM17.5782 6.50769C17.9068 6.94892 18.2188 7.39846 18.5243 7.85631C18.5843 8.25323 18.6277 8.64092 18.6536 9.02585C18.7043 9.768 18.7191 10.5711 18.6729 11.3529C18.8114 11.3585 19.0357 11.1277 19.1132 10.7908C19.164 10.3246 19.0948 9.49477 19.0902 9.21969C19.084 9.04729 19.0757 8.87497 19.0652 8.70277C19.4289 9.29723 19.7834 9.91939 20.1295 10.6108C20.256 10.5517 20.2283 9.84462 20.1545 9.74492C19.8775 9.15139 19.4963 8.56431 19.3745 8.33908C19.3292 8.256 19.1751 8.01969 18.9914 7.74923C18.9756 7.53337 18.9498 7.31836 18.9139 7.10492C18.8566 6.70985 19.0772 7.14831 19.0468 6.91846C18.9757 6.52339 18.756 6.25662 18.4994 5.89477C18.4163 5.77754 18.4191 5.75354 18.2908 5.92339C18.2454 6.02514 18.2246 6.13611 18.2299 6.24739C18.1898 6.18848 18.147 6.13149 18.1016 6.07662C17.9622 5.95642 17.8222 5.83703 17.6816 5.71846C17.5883 5.652 17.3612 5.532 17.3206 5.73139C17.3017 5.87114 17.3086 6.01319 17.3409 6.15046C17.3649 6.24923 17.508 6.41354 17.5782 6.50769ZM18.2612 6.48554C18.2788 6.56216 18.2972 6.63877 18.3092 6.71723L18.3231 6.792C18.2844 6.73789 18.244 6.68494 18.2022 6.63323C18.0508 6.45415 18.1763 6.49292 18.2612 6.48554Z" fill="white"/>
<path d="M20.233 10.7935C19.9117 11.1286 19.4483 11.5412 18.9443 11.7323C18.8899 11.7932 19.0791 12.0544 19.3228 12.0544C19.7317 12.0064 20.0917 11.7766 20.425 11.1719C20.5145 11.0316 20.6714 10.7298 20.6751 10.4953C20.7056 9.12364 20.6068 8.05564 20.401 7.06425C20.3872 6.98471 20.391 6.90311 20.412 6.82518C20.4379 6.79379 20.5283 6.82518 20.5763 6.74764C20.6456 6.67564 20.3908 6.08487 20.245 5.85779C20.1933 5.75625 20.1757 5.68795 20.0899 5.86979C19.9994 6.01749 19.9394 6.27502 19.9468 6.51502C20.1416 7.86549 20.2016 9.04795 20.329 10.3984C20.3391 10.5286 20.3197 10.7187 20.233 10.7935ZM25.6145 7.36887C25.6007 7.27287 25.5582 7.04949 25.5748 7.02087C25.6007 6.95256 25.7345 7.02825 25.7825 6.94979C25.8527 6.87872 25.4373 6.34518 25.2923 6.1181C25.2397 6.01656 25.2222 5.94825 25.1363 6.1301C25.0459 6.27779 25.0145 6.54272 25.0505 6.77533C25.2674 8.2421 25.429 9.34425 25.4622 10.6449C25.4428 10.7686 25.4391 10.835 25.381 10.9901C25.2527 11.1544 25.1114 11.3593 24.9776 11.459C24.8447 11.5578 24.5613 11.6529 24.468 11.7258C24.1754 11.8966 24.1745 12.0913 24.4127 12.0978C24.8207 12.0498 25.3043 12.0166 25.6376 11.5126C25.7271 11.3723 25.8333 10.991 25.8379 10.7566C25.8683 9.38487 25.8203 8.36025 25.6145 7.36887ZM22.5213 8.51072C22.525 8.32241 22.5425 8.07318 22.5527 7.91718C22.5573 7.85902 22.5711 7.79349 22.6265 7.77872C22.6828 7.76395 22.7825 7.83595 22.7834 7.77502C22.7723 7.65595 22.7483 7.47872 22.681 7.39472C22.5887 7.2581 22.344 7.29133 22.3007 7.50549C22.3016 7.58487 22.3376 7.62733 22.3311 7.69933C22.32 7.73995 22.2776 7.76764 22.177 7.71964C22.1936 7.70487 22.1114 7.59133 22.1114 7.59133C22.033 7.54333 21.9277 7.5941 21.8603 7.63749C21.836 7.68403 21.8214 7.73509 21.8176 7.78749C21.8138 7.83989 21.8208 7.89252 21.8382 7.9421C21.949 8.15164 22.3357 8.50702 22.5213 8.51072Z" fill="white"/>
<path d="M22.3911 6.90546C22.6616 7.23684 22.9376 7.57284 23.2154 7.91438C23.2754 8.67684 23.2911 9.30084 23.3502 10.0633C23.3419 10.3864 23.2422 10.6679 23.1471 10.7085C23.1471 10.7085 23.004 10.7916 22.908 10.7002C22.8379 10.6716 22.5582 10.2341 22.5582 10.2341C22.4151 10.103 22.3209 10.1399 22.2194 10.2341C21.9388 10.5045 21.8123 11.0122 21.6222 11.3611C21.5723 11.4396 21.4339 11.5061 21.2797 11.3556C20.8892 10.8211 21.1182 10.0615 21.0702 10.2571C20.7222 10.6495 20.8754 11.2984 20.9539 11.4387C21.0683 11.6676 21.1616 11.8153 21.3849 11.9288C21.588 12.0784 21.7468 11.9842 21.8336 11.8799C22.0385 11.6667 22.0412 11.1267 22.1372 11.0178C22.2037 10.8211 22.3745 10.8544 22.4566 10.9421C22.5319 11.0482 22.6316 11.1347 22.7474 11.1941C22.9385 11.363 23.1665 11.3935 23.3908 11.2393C23.544 11.1535 23.6446 11.0418 23.7342 10.8211C23.8339 10.5553 23.7794 9.33315 23.7591 8.60022C23.9022 8.78484 24.0416 8.97776 24.1828 9.17069C24.2446 9.78269 24.2797 10.3919 24.2594 11.0141C24.2446 11.1387 24.6932 10.6448 24.6896 10.4104C24.6877 10.2211 24.6896 10.0495 24.6896 9.88792C24.9056 10.2128 25.116 10.5479 25.3136 10.9024C25.4372 10.8378 25.3966 10.1408 25.3182 10.0448C25.0902 9.66269 24.7865 9.26484 24.5769 8.98053C24.5631 8.94453 24.5557 8.90392 24.5391 8.86976C24.4551 8.67499 24.5077 8.51807 24.468 8.3113C24.4292 8.10361 24.4394 7.79346 24.3794 7.54699C24.3628 7.45099 24.3129 7.14269 24.3277 7.11407C24.3517 7.04484 24.444 7.11592 24.4892 7.03653C24.5566 6.96269 24.2557 6.18269 24.1025 5.9593C24.0471 5.85961 23.9474 5.89376 23.8237 6.05622C23.7102 6.1633 23.7526 6.40699 23.796 6.63869C23.904 7.19992 23.9945 7.73807 24.072 8.27069C23.906 8.05 23.7383 7.83061 23.5689 7.61253L23.5616 7.57192C23.5616 7.56176 23.5366 7.08822 23.5145 6.97561C23.5108 6.93038 23.4997 6.91653 23.5477 6.92207C23.5985 6.96453 23.6049 6.9673 23.6372 6.98207C23.6889 6.9913 23.7342 6.90361 23.7037 6.8233L23.2265 5.94453C23.1886 5.90669 23.1388 5.86607 23.0788 5.95469C23.0415 5.98722 23.0117 6.02739 22.9913 6.07246C22.9709 6.11753 22.9605 6.16645 22.9606 6.21592C22.9754 6.42361 23.0114 6.63592 23.0252 6.84453L23.0456 6.95715C23.0243 6.93222 22.9985 6.90084 22.9874 6.88976C22.5822 6.4633 23.1739 6.82053 22.9099 6.49099C22.6865 6.24545 22.6219 6.16884 22.4299 6.02115C22.3339 5.9593 22.2757 5.84115 22.2443 6.04238C22.2285 6.21883 22.2239 6.39611 22.2305 6.57315C22.2305 6.65807 22.3163 6.81315 22.3911 6.90546ZM14.1748 7.90146C14.4074 7.99746 14.556 7.55438 14.652 7.06884C14.7166 6.93222 14.7665 6.91746 14.7997 6.98761C14.7914 7.63376 14.8459 7.77684 15.012 7.97345C15.3822 8.25961 15.6886 8.00946 15.7136 7.98546L16.0016 7.69746C16.0652 7.63007 16.1511 7.62546 16.2416 7.68546C16.3302 7.76484 16.3182 7.9033 16.5065 7.9993C16.6652 8.06299 17.0049 8.01407 17.0834 7.87746C17.1896 7.69653 17.2154 7.63376 17.2634 7.56546C17.3391 7.46484 17.4683 7.51007 17.4683 7.54146C17.4563 7.59776 17.3806 7.65407 17.4323 7.75469C17.5228 7.82207 17.5431 7.77869 17.5966 7.76392C17.7849 7.67346 17.9252 7.26546 17.9252 7.26546C17.9336 7.11315 17.8486 7.12607 17.7932 7.15746C17.7212 7.20084 17.7166 7.21561 17.6446 7.25992C17.5523 7.27376 17.3742 7.33469 17.2865 7.19807C17.196 7.03376 17.1942 6.80484 17.1259 6.63961C17.1259 6.62761 17.0059 6.37838 17.1176 6.36269C17.1739 6.37284 17.2929 6.40422 17.3123 6.30453C17.3705 6.20669 17.1859 5.92792 17.0603 5.78669C16.9505 5.66669 16.7982 5.65192 16.6514 5.77469C16.548 5.86976 16.5628 5.97499 16.5425 6.07561C16.5257 6.14661 16.5257 6.22055 16.5426 6.29154C16.5594 6.36253 16.5925 6.42861 16.6394 6.48453C16.7419 6.68669 16.9292 6.94792 16.8674 7.31346C16.8674 7.31346 16.7585 7.48699 16.5674 7.46484C16.488 7.4473 16.3588 7.41315 16.2905 6.90546C16.2388 6.52053 16.3034 5.98238 16.14 5.73038C16.0809 5.57807 16.0385 5.4313 15.8945 5.69161C15.8557 5.79407 15.6896 5.94915 15.8105 6.26946C15.9092 6.47161 15.9489 6.80115 15.9046 7.16853C15.8363 7.27284 15.8216 7.30792 15.732 7.41222C15.6065 7.54699 15.4708 7.51284 15.3665 7.46207C15.2686 7.39653 15.1929 7.36238 15.1486 7.15376C15.1569 6.82146 15.1754 6.27684 15.1145 6.16146C15.0249 5.98238 14.8772 6.04699 14.8136 6.10145C14.5099 6.3793 14.3603 6.8473 14.2689 7.2193C14.1849 7.49069 14.0954 7.41315 14.0326 7.3033C13.8794 7.1593 13.8692 6.03592 13.6837 6.22146C13.3856 7.06515 13.8517 7.99192 14.1748 7.90146Z" fill="white"/>
<path d="M18.5881 9.7144L18.4994 9.66363L16.7631 9.65532C16.6736 9.62117 16.7004 9.59163 16.7631 9.56763C17.1776 9.51132 17.9151 9.39132 17.9641 8.68332C17.9558 8.31501 17.8053 8.07317 17.353 8.0067C17.0216 8.03255 16.7844 8.3547 16.8222 8.70824C16.8065 8.80424 16.8536 8.9907 16.7567 9.01193C16.1188 9.07009 15.4238 9.46886 15.4007 9.75501C15.3619 9.78178 15.2751 9.70424 15.2862 9.5824C15.2555 9.06119 15.1055 8.554 14.8478 8.09993C14.6465 7.8987 14.7093 7.96517 14.5745 8.06024C14.4878 8.15994 14.4721 8.22824 14.4767 8.4267C14.4767 8.43409 14.6391 8.88732 14.7767 9.20486C14.8681 9.5307 14.9539 9.9027 14.8921 10.2544C14.6779 10.7196 14.2468 11.1369 13.8314 11.363C13.6173 11.4322 13.4336 11.4073 13.3884 11.3593C13.2564 11.2707 13.2628 11.1073 13.273 11.1046C13.6228 10.8599 14.0234 10.6633 14.3373 10.0052C14.4296 9.75409 14.4573 9.60178 14.3659 9.21317C14.3405 9.07622 14.2776 8.94902 14.1841 8.84578C14.2404 8.80886 14.4019 8.93163 14.4268 8.8587C14.38 8.64599 14.2741 8.45081 14.1213 8.29563C13.9967 8.18209 13.861 8.16917 13.7465 8.27347C13.6173 8.34547 13.5896 8.60209 13.6514 8.82732C13.7198 8.99717 13.9053 9.02578 14.0382 9.3664C14.0382 9.37378 14.0862 9.62117 14.0179 9.71809C13.9634 9.88794 13.2573 10.4427 13.2185 10.4676C13.1991 10.4916 13.2074 10.4556 13.2047 10.3633C13.2001 10.2507 13.2499 9.98486 13.2361 9.98301C13.0062 10.1316 12.9296 10.5867 12.8881 10.7215C12.3065 11.123 11.6484 11.4221 11.2681 11.8301C11.0696 12.1393 12.6324 11.4747 12.8142 11.3944C12.8548 11.4239 12.8502 11.5633 12.9591 11.6879C13.1216 11.9076 13.465 12.0433 13.8019 11.9593C14.365 11.7553 14.6908 11.3713 15.0213 10.9458C15.0684 10.8766 15.1422 10.8239 15.2105 10.8766C15.4376 11.3852 16.0939 11.7452 16.9404 11.783C17.137 11.5439 17.0419 11.4286 16.9625 11.3787C16.9625 11.3713 16.5444 11.2126 16.4807 11.0538C16.4419 10.9098 16.5361 10.7833 16.7244 10.6873C17.2681 10.6218 17.8025 10.5489 18.3204 10.3827C18.3259 10.2092 18.4265 9.94886 18.4958 9.83624C18.5622 9.72178 18.5982 9.75594 18.5881 9.7144ZM17.1601 8.63255C17.1859 8.58917 17.2718 8.59101 17.3521 8.63809C17.4324 8.68424 17.4776 8.75809 17.4508 8.80147C17.425 8.84578 17.3382 8.84301 17.2579 8.79594C17.1776 8.74978 17.1342 8.67686 17.1601 8.63255ZM16.4613 10.3864C16.2748 10.4501 16.0958 10.4999 16.0958 10.7695C16.165 11.1442 16.0007 11.0159 15.9038 10.9642C15.7893 10.8821 15.4671 10.6836 15.421 10.2553C15.4136 10.1529 15.4939 10.067 15.6222 10.067C15.8151 10.1196 16.1004 10.1233 16.3478 10.1492C16.5499 10.1621 16.6505 10.3209 16.4613 10.3864ZM10.0302 6.22793C10.2296 6.32393 10.6062 6.28332 10.5896 5.96024C10.5896 5.93163 10.5822 5.83563 10.5794 5.80978C10.5388 5.7147 10.4281 5.73778 10.4022 5.83655C10.3939 5.86886 10.4161 5.92055 10.3874 5.93717C10.3708 5.95378 10.3071 5.94363 10.3099 5.85501C10.3099 5.8264 10.2887 5.79594 10.2767 5.7784C10.2638 5.77009 10.2564 5.76732 10.2333 5.76732C10.2056 5.76824 10.2056 5.77563 10.1908 5.79963C10.1844 5.8227 10.1751 5.8467 10.1751 5.87347C10.1714 5.90486 10.1594 5.91594 10.1364 5.92147C10.1105 5.92147 10.1161 5.92424 10.0958 5.9104C10.0828 5.89655 10.0671 5.89101 10.0671 5.86794C10.0671 5.84096 10.0627 5.81416 10.0542 5.78855C10.0431 5.77378 10.0256 5.76732 10.0053 5.76178C9.89637 5.76178 9.88899 5.8864 9.89545 5.9344C9.88529 5.9427 9.8816 6.16609 10.0302 6.22793Z" fill="white"/>
<path d="M16.165 8.33256C16.165 8.30395 16.1437 8.27441 16.1317 8.25595C16.1188 8.24764 16.1114 8.24487 16.0883 8.24487C16.0607 8.24579 16.0616 8.25318 16.0459 8.27718C16.0394 8.30118 16.0302 8.32426 16.0302 8.35102C16.0274 8.38333 16.0145 8.39441 15.9914 8.39902C15.9656 8.39902 15.9711 8.40179 15.9499 8.38887C15.937 8.37502 15.9213 8.36949 15.9213 8.34641C15.9213 8.31942 15.9169 8.29262 15.9083 8.26702C15.8973 8.25226 15.8797 8.24579 15.8594 8.24118C15.7505 8.24118 15.7431 8.36579 15.7487 8.41287C15.7403 8.4221 15.7357 8.64456 15.8843 8.70733C16.0847 8.80241 16.56 8.74702 16.4437 8.43964C16.4418 8.38909 16.4384 8.33861 16.4336 8.28826C16.393 8.19318 16.2813 8.21718 16.2563 8.31502C16.249 8.34733 16.2711 8.39902 16.2416 8.41564C16.2268 8.43226 16.1622 8.4221 16.165 8.33256ZM19.3007 7.67995C19.5 7.77595 19.8757 7.73533 19.8591 7.41318C19.8572 7.36263 19.8538 7.31215 19.849 7.26179C19.8083 7.16672 19.6976 7.19072 19.6727 7.28856C19.6643 7.32087 19.6865 7.37256 19.657 7.38918C19.6403 7.40579 19.5767 7.39656 19.5794 7.30702C19.5794 7.27841 19.5582 7.24795 19.5462 7.23041C19.5333 7.2221 19.5259 7.21933 19.5019 7.21933C19.4742 7.22118 19.4751 7.22764 19.4594 7.25164C19.453 7.27564 19.4437 7.29872 19.4437 7.32549C19.44 7.35779 19.428 7.36887 19.405 7.37349C19.3791 7.37349 19.3847 7.37626 19.3634 7.36333C19.3505 7.34949 19.3357 7.34395 19.3357 7.32087C19.3356 7.29359 19.3313 7.26649 19.3228 7.24056C19.3108 7.22579 19.2942 7.21933 19.273 7.21472C19.164 7.21472 19.1567 7.33933 19.1631 7.38641C19.1567 7.39564 19.152 7.6181 19.3007 7.67995ZM19.4354 6.43195C19.5065 6.63133 19.381 6.82149 19.4557 6.84918C19.5231 6.88056 19.6191 6.64333 19.6542 6.42456C19.6957 6.24733 19.5693 5.88456 19.3902 5.80979C19.2813 5.78395 19.1262 5.84856 19.176 5.99441C19.1511 6.06456 19.3957 6.30272 19.4354 6.43195ZM21.277 11.1064C21.4163 11.1073 21.577 10.7879 21.6453 10.4713C21.6831 10.0356 21.6194 9.77072 21.6083 9.5141C21.5963 9.25841 21.3194 7.3061 21.2622 7.11226C21.1948 6.74579 21.5327 7.06333 21.4957 6.8501C21.3785 6.58149 21.0877 6.19102 20.9954 5.95749C20.94 5.85779 20.964 5.76918 20.8403 5.93164C20.7268 6.30549 20.6871 6.6101 20.7305 6.84272C21.024 8.37502 21.325 9.64887 21.277 11.1064ZM24.744 7.10026C24.7763 7.19995 24.6951 7.5221 24.7625 7.55164C24.8243 7.58487 24.9111 7.32918 24.9434 7.09195C24.961 6.96179 24.8659 6.50764 24.7025 6.42641C24.6028 6.39872 24.4616 6.46795 24.5077 6.62672C24.4847 6.70333 24.708 6.95995 24.744 7.10026ZM12.6342 10.475C12.6942 10.4999 12.7763 10.3116 12.8077 10.1372C12.8253 10.0412 12.733 9.70795 12.577 9.64795C12.481 9.62764 12.3499 9.65349 12.3905 9.79564C12.3859 9.87226 12.6028 9.96456 12.6157 10.1427C12.6471 10.2166 12.5696 10.4538 12.6342 10.475ZM8.42865 6.21502C8.45911 6.29164 8.39819 6.53626 8.46188 6.55933C8.52004 6.58518 8.60219 6.38949 8.63265 6.20949C8.65019 6.10979 8.63634 5.77195 8.40558 5.70272C8.3105 5.68149 8.1785 5.7341 8.22188 5.85502C8.19973 5.91226 8.3945 6.10795 8.42865 6.21502ZM12.9536 7.29779C12.7773 7.39379 12.708 7.6781 12.8188 7.84333C12.9213 7.9901 13.0837 7.93564 13.1059 7.93564C13.2794 7.95687 13.3819 7.61072 13.3819 7.61072C13.3819 7.61072 13.3874 7.51379 13.1816 7.69749C13.0948 7.7141 13.0837 7.68179 13.0625 7.63195C13.0415 7.54161 13.0509 7.44685 13.0893 7.36241C13.1188 7.27656 13.0523 7.23872 12.9536 7.29779ZM14.2847 6.23349C14.3131 6.21591 14.3375 6.19251 14.3563 6.16483C14.3751 6.13715 14.3878 6.10581 14.3936 6.07287C14.4203 5.9381 14.2505 6.13656 14.2293 5.9861C14.1914 5.84672 14.3003 5.78949 14.4037 5.65472C14.4074 5.56149 14.4056 5.49595 14.2791 5.57164C14.1905 5.63164 14.0133 5.81441 14.0077 6.02487C14.0022 6.14395 13.98 6.14302 14.0585 6.21872C14.1148 6.30087 14.1711 6.29256 14.2847 6.23349ZM15.4837 6.30549C15.5982 5.99533 15.5982 5.86426 15.6065 5.73226C15.5714 5.53195 15.4357 5.53841 15.3462 5.76087C15.3074 5.84487 15.2622 6.28702 15.2696 6.28702C15.2391 6.41902 15.4071 6.47533 15.4837 6.30549ZM23.0253 8.50518C23.0253 8.50518 22.0994 9.16333 22.0773 9.18641C21.985 9.26764 22.0311 9.55564 22.0773 9.52241C22.1428 9.54826 23.0742 8.91595 23.0557 8.8421C23.0991 8.84395 23.1203 8.47195 23.0253 8.50518ZM22.9117 10.2904C22.9736 10.3236 23.137 10.1215 23.1305 9.86949C23.149 9.73933 23.0834 9.2621 22.921 9.18087C22.8213 9.15318 22.6883 9.2381 22.7345 9.39595C22.7114 9.47164 22.849 9.73656 22.885 9.87687C22.9173 9.97749 22.8443 10.2609 22.9117 10.2904ZM17.6687 11.6713C17.6687 11.6796 17.7471 11.747 17.8394 11.6935C18.0333 11.6187 18.1551 11.5467 18.4265 11.4867C18.4976 11.4858 18.493 11.2947 18.3803 11.2883C18.2336 11.2956 18.097 11.303 17.9502 11.4193C17.8597 11.4396 17.845 11.3852 17.8247 11.3353C17.8025 11.2126 17.8754 11.1276 17.8597 11.0363C17.8653 11.0418 17.7757 10.9596 17.6843 11.0058C17.6797 11.0058 17.4803 11.1406 17.4167 11.2347C17.377 11.2652 17.3816 11.291 17.3936 11.3418C17.424 11.4119 17.4785 11.3907 17.5394 11.3575C17.6207 11.3464 17.6594 11.3999 17.653 11.4969C17.6142 11.6196 17.6687 11.6649 17.6687 11.6713ZM23.7157 11.8246C23.6853 11.8772 23.665 11.9566 23.7591 11.9815C23.9327 12.0304 24.3323 11.7701 24.3323 11.7655C24.397 11.7166 24.3757 11.6252 24.3702 11.6252C24.3323 11.5818 24.2474 11.6067 24.1902 11.6003C24.1634 11.6003 24.073 11.5864 24.1163 11.507C24.1469 11.4642 24.1711 11.4173 24.1883 11.3676C24.2151 11.3076 24.192 11.2679 24.0942 11.2356C23.9954 11.2172 23.9557 11.2264 23.8459 11.2356C23.7868 11.2486 23.7665 11.2744 23.7554 11.3464C23.76 11.4553 23.8256 11.4498 23.8939 11.4932C23.9336 11.5439 23.9594 11.5901 23.8911 11.6723C23.8265 11.7323 23.7813 11.7655 23.7157 11.8246ZM23.5385 16.6153H22.1539V16.1538C22.1539 16.0314 22.1053 15.914 22.0187 15.8274C21.9321 15.7409 21.8148 15.6923 21.6923 15.6923C21.5699 15.6923 21.4525 15.7409 21.366 15.8274C21.2794 15.914 21.2308 16.0314 21.2308 16.1538V16.6153H10.1539C10.1539 16.6153 10.1539 17.5384 12.9231 17.5384H21.2308V17.9999C21.2308 18.1224 21.2794 18.2397 21.366 18.3263C21.4525 18.4129 21.5699 18.4615 21.6923 18.4615C21.8148 18.4615 21.9321 18.4129 22.0187 18.3263C22.1053 18.2397 22.1539 18.1224 22.1539 17.9999V17.5384H23.077V17.9999C23.077 18.1224 23.1256 18.2397 23.2121 18.3263C23.2987 18.4129 23.4161 18.4615 23.5385 18.4615C23.6609 18.4615 23.7783 18.4129 23.8649 18.3263C23.9514 18.2397 24 18.1224 24 17.9999V17.0769C24 16.9545 23.9514 16.8371 23.8649 16.7505C23.7783 16.664 23.6609 16.6153 23.5385 16.6153Z" fill="white"/>
</svg>
