<svg width="34" height="24" viewBox="0 0 34 24" fill="none" xmlns="http://www.w3.org/2000/svg">
<path d="M3.69231 0C2.71305 0 1.77389 0.38901 1.08145 1.08145C0.38901 1.77389 0 2.71305 0 3.69231L0 20.3077C0 21.287 0.38901 22.2261 1.08145 22.9185C1.77389 23.611 2.71305 24 3.69231 24H11.0769V0H3.69231Z" fill="#169B62"/>
<path d="M11.0769 0H22.1538V24H11.0769V0Z" fill="#EEEEEE"/>
<path d="M29.5385 0H22.1539V24H29.5385C30.5177 24 31.4569 23.611 32.1493 22.9185C32.8418 22.2261 33.2308 21.287 33.2308 20.3077V3.69231C33.2308 2.71305 32.8418 1.77389 32.1493 1.08145C31.4569 0.38901 30.5177 0 29.5385 0Z" fill="#FF883E"/>
</svg>
