<svg width="34" height="24" viewBox="0 0 34 24" fill="none" xmlns="http://www.w3.org/2000/svg">
<path d="M0 19.8629V20.3078C0 21.287 0.38901 22.2262 1.08145 22.9186C1.77389 23.6111 2.71305 24.0001 3.69231 24.0001H29.5385C30.5177 24.0001 31.4569 23.6111 32.1493 22.9186C32.8418 22.2262 33.2308 21.287 33.2308 20.3078V19.8629H0Z" fill="#A7122D"/>
<path d="M0 15.8593H33.2308V19.9993H0V15.8593Z" fill="#EEEEEE"/>
<path d="M0 7.85809H33.2308V16.0006H0V7.85809Z" fill="#292648"/>
<path d="M0 3.85931H33.2308V7.99932H0V3.85931Z" fill="#EEEEEE"/>
<path d="M0 3.99969V3.69231C0 2.71305 0.38901 1.77389 1.08145 1.08145C1.77389 0.38901 2.71305 0 3.69231 0H29.5385C30.5177 0 31.4569 0.38901 32.1493 1.08145C32.8418 1.77389 33.2308 2.71305 33.2308 3.69231V3.99969H0Z" fill="#A7122D"/>
</svg>
