<svg width="34" height="24" viewBox="0 0 34 24" fill="none" xmlns="http://www.w3.org/2000/svg">
<path d="M33.2308 20.3077C33.2308 21.287 32.8418 22.2261 32.1493 22.9185C31.4569 23.611 30.5177 24 29.5385 24H3.69231C2.71305 24 1.77389 23.611 1.08145 22.9185C0.38901 22.2261 0 21.287 0 20.3077V3.69231C0 2.71305 0.38901 1.77389 1.08145 1.08145C1.77389 0.38901 2.71305 0 3.69231 0H29.5385C30.5177 0 31.4569 0.38901 32.1493 1.08145C32.8418 1.77389 33.2308 2.71305 33.2308 3.69231V20.3077Z" fill="#EEEEEE"/>
<path d="M16.6154 18.4615C20.184 18.4615 23.0769 15.5686 23.0769 12C23.0769 8.43139 20.184 5.53846 16.6154 5.53846C13.0468 5.53846 10.1539 8.43139 10.1539 12C10.1539 15.5686 13.0468 18.4615 16.6154 18.4615Z" fill="#ED1B2F"/>
</svg>
