<svg width="34" height="24" viewBox="0 0 34 24" fill="none" xmlns="http://www.w3.org/2000/svg">
<path d="M0 20.3077C0 21.287 0.38901 22.2261 1.08145 22.9186C1.77389 23.611 2.71305 24 3.69231 24H29.5385C30.5177 24 31.4569 23.611 32.1493 22.9186C32.8418 22.2261 33.2308 21.287 33.2308 20.3077V15.6923H0V20.3077Z" fill="#138808"/>
<path d="M33.2308 8.30769V3.69231C33.2308 2.71305 32.8418 1.77389 32.1493 1.08145C31.4569 0.38901 30.5177 0 29.5385 0H3.69231C2.71305 0 1.77389 0.38901 1.08145 1.08145C0.38901 1.77389 0 2.71305 0 3.69231L0 8.30769H33.2308Z" fill="#FF9933"/>
<path d="M0 8.00031H33.2308V16.0006H0V8.00031Z" fill="#F7F7F7"/>
<path d="M16.6154 15.6923C18.6546 15.6923 20.3077 14.0392 20.3077 12C20.3077 9.96078 18.6546 8.30768 16.6154 8.30768C14.5762 8.30768 12.9231 9.96078 12.9231 12C12.9231 14.0392 14.5762 15.6923 16.6154 15.6923Z" fill="#000080"/>
<path d="M16.6154 15.1154C18.336 15.1154 19.7308 13.7206 19.7308 12C19.7308 10.2794 18.336 8.88461 16.6154 8.88461C14.8948 8.88461 13.5 10.2794 13.5 12C13.5 13.7206 14.8948 15.1154 16.6154 15.1154Z" fill="#F7F7F7"/>
<path d="M16.7077 10.8462L16.6153 11.4462L16.523 10.8462L16.6153 9.0462L16.7077 10.8462ZM15.851 9.14682L16.2277 10.909L16.4723 11.4647L16.4058 10.8619L15.851 9.14682ZM15.1384 9.4422L15.9581 11.0465L16.3384 11.52L16.1187 10.9542L15.1384 9.4422ZM14.5264 9.91113L15.7338 11.2496L16.224 11.6087L15.8649 11.1185L14.5264 9.91113ZM14.0575 10.5231L15.5695 11.5034L16.1353 11.7231L15.6618 11.3428L14.0575 10.5231ZM13.7621 11.2357L15.4772 11.7905L16.08 11.857L15.5243 11.6124L13.7621 11.2357ZM13.6615 12L15.4615 12.0924L16.0615 12L15.4615 11.9077L13.6615 12ZM13.7621 12.7644L15.5243 12.3877L16.08 12.1431L15.4772 12.2096L13.7621 12.7644ZM14.0575 13.477L15.6618 12.6573L16.1353 12.277L15.5695 12.4967L14.0575 13.477ZM14.5264 14.089L15.8649 12.8816L16.224 12.3914L15.7338 12.7505L14.5264 14.089ZM15.1384 14.5579L16.1187 13.0459L16.3384 12.4801L15.9581 12.9536L15.1384 14.5579ZM15.851 14.8533L16.4058 13.1382L16.4723 12.5354L16.2277 13.0911L15.851 14.8533ZM16.6153 14.9539L16.7077 13.1539L16.6153 12.5539L16.523 13.1539L16.6153 14.9539ZM17.3797 14.8533L17.003 13.0911L16.7584 12.5354L16.8249 13.1382L17.3797 14.8533ZM18.0923 14.5579L17.2726 12.9536L16.8923 12.4801L17.112 13.0459L18.0923 14.5579ZM18.7043 14.089L17.4969 12.7505L17.0067 12.3914L17.3658 12.8816L18.7043 14.089ZM19.1732 13.477L17.6612 12.4967L17.0953 12.277L17.5689 12.6573L19.1732 13.477ZM19.4686 12.7644L17.7535 12.2096L17.1507 12.1431L17.7064 12.3877L19.4686 12.7644ZM19.5692 12L17.7692 11.9077L17.1692 12L17.7692 12.0924L19.5692 12ZM19.4686 11.2357L17.7064 11.6124L17.1507 11.857L17.7535 11.7905L19.4686 11.2357ZM19.1732 10.5231L17.5689 11.3428L17.0953 11.7231L17.6612 11.5034L19.1732 10.5231ZM18.7043 9.91113L17.3658 11.1185L17.0067 11.6087L17.4969 11.2496L18.7043 9.91113ZM18.0923 9.4422L17.112 10.9542L16.8923 11.52L17.2726 11.0465L18.0923 9.4422ZM17.3797 9.14682L16.8249 10.8619L16.7584 11.4647L17.003 10.909L17.3797 9.14682Z" fill="#6666B3"/>
<path d="M16.2092 9.10068C16.3112 9.10068 16.3938 9.01802 16.3938 8.91606C16.3938 8.8141 16.3112 8.73145 16.2092 8.73145C16.1073 8.73145 16.0246 8.8141 16.0246 8.91606C16.0246 9.01802 16.1073 9.10068 16.2092 9.10068Z" fill="#000080"/>
<path d="M15.4246 9.31116C15.5266 9.31116 15.6092 9.2285 15.6092 9.12654C15.6092 9.02458 15.5266 8.94193 15.4246 8.94193C15.3226 8.94193 15.24 9.02458 15.24 9.12654C15.24 9.2285 15.3226 9.31116 15.4246 9.31116Z" fill="#000080"/>
<path d="M14.7212 9.71634C14.8231 9.71634 14.9058 9.63368 14.9058 9.53172C14.9058 9.42976 14.8231 9.34711 14.7212 9.34711C14.6192 9.34711 14.5366 9.42976 14.5366 9.53172C14.5366 9.63368 14.6192 9.71634 14.7212 9.71634Z" fill="#000080"/>
<path d="M14.147 10.2905C14.249 10.2905 14.3316 10.2078 14.3316 10.1058C14.3316 10.0039 14.249 9.92123 14.147 9.92123C14.0451 9.92123 13.9624 10.0039 13.9624 10.1058C13.9624 10.2078 14.0451 10.2905 14.147 10.2905Z" fill="#000080"/>
<path d="M13.7418 10.9939C13.8438 10.9939 13.9264 10.9113 13.9264 10.8093C13.9264 10.7073 13.8438 10.6247 13.7418 10.6247C13.6398 10.6247 13.5572 10.7073 13.5572 10.8093C13.5572 10.9113 13.6398 10.9939 13.7418 10.9939Z" fill="#000080"/>
<path d="M13.5314 11.7785C13.6333 11.7785 13.716 11.6958 13.716 11.5939C13.716 11.4919 13.6333 11.4093 13.5314 11.4093C13.4294 11.4093 13.3467 11.4919 13.3467 11.5939C13.3467 11.6958 13.4294 11.7785 13.5314 11.7785Z" fill="#000080"/>
<path d="M13.5314 12.5908C13.6333 12.5908 13.716 12.5082 13.716 12.4062C13.716 12.3042 13.6333 12.2216 13.5314 12.2216C13.4294 12.2216 13.3467 12.3042 13.3467 12.4062C13.3467 12.5082 13.4294 12.5908 13.5314 12.5908Z" fill="#000080"/>
<path d="M13.7418 13.3754C13.8438 13.3754 13.9264 13.2928 13.9264 13.1908C13.9264 13.0889 13.8438 13.0062 13.7418 13.0062C13.6398 13.0062 13.5572 13.0889 13.5572 13.1908C13.5572 13.2928 13.6398 13.3754 13.7418 13.3754Z" fill="#000080"/>
<path d="M14.147 14.0788C14.249 14.0788 14.3316 13.9961 14.3316 13.8941C14.3316 13.7922 14.249 13.7095 14.147 13.7095C14.0451 13.7095 13.9624 13.7922 13.9624 13.8941C13.9624 13.9961 14.0451 14.0788 14.147 14.0788Z" fill="#000080"/>
<path d="M14.7212 14.653C14.8231 14.653 14.9058 14.5703 14.9058 14.4684C14.9058 14.3664 14.8231 14.2838 14.7212 14.2838C14.6192 14.2838 14.5366 14.3664 14.5366 14.4684C14.5366 14.5703 14.6192 14.653 14.7212 14.653Z" fill="#000080"/>
<path d="M15.4246 15.0582C15.5266 15.0582 15.6092 14.9755 15.6092 14.8736C15.6092 14.7716 15.5266 14.689 15.4246 14.689C15.3226 14.689 15.24 14.7716 15.24 14.8736C15.24 14.9755 15.3226 15.0582 15.4246 15.0582Z" fill="#000080"/>
<path d="M16.2092 15.2687C16.3112 15.2687 16.3938 15.186 16.3938 15.0841C16.3938 14.9821 16.3112 14.8994 16.2092 14.8994C16.1073 14.8994 16.0246 14.9821 16.0246 15.0841C16.0246 15.186 16.1073 15.2687 16.2092 15.2687Z" fill="#000080"/>
<path d="M17.0215 15.2687C17.1235 15.2687 17.2061 15.186 17.2061 15.0841C17.2061 14.9821 17.1235 14.8994 17.0215 14.8994C16.9196 14.8994 16.8369 14.9821 16.8369 15.0841C16.8369 15.186 16.9196 15.2687 17.0215 15.2687Z" fill="#000080"/>
<path d="M17.8061 15.0582C17.908 15.0582 17.9907 14.9755 17.9907 14.8736C17.9907 14.7716 17.908 14.689 17.8061 14.689C17.7041 14.689 17.6215 14.7716 17.6215 14.8736C17.6215 14.9755 17.7041 15.0582 17.8061 15.0582Z" fill="#000080"/>
<path d="M18.5095 14.653C18.6115 14.653 18.6941 14.5703 18.6941 14.4684C18.6941 14.3664 18.6115 14.2838 18.5095 14.2838C18.4075 14.2838 18.3249 14.3664 18.3249 14.4684C18.3249 14.5703 18.4075 14.653 18.5095 14.653Z" fill="#000080"/>
<path d="M19.0837 14.0788C19.1856 14.0788 19.2683 13.9961 19.2683 13.8941C19.2683 13.7922 19.1856 13.7095 19.0837 13.7095C18.9817 13.7095 18.899 13.7922 18.899 13.8941C18.899 13.9961 18.9817 14.0788 19.0837 14.0788Z" fill="#000080"/>
<path d="M19.4889 13.3754C19.5908 13.3754 19.6735 13.2928 19.6735 13.1908C19.6735 13.0889 19.5908 13.0062 19.4889 13.0062C19.3869 13.0062 19.3043 13.0889 19.3043 13.1908C19.3043 13.2928 19.3869 13.3754 19.4889 13.3754Z" fill="#000080"/>
<path d="M19.6993 12.5908C19.8013 12.5908 19.8839 12.5082 19.8839 12.4062C19.8839 12.3042 19.8013 12.2216 19.6993 12.2216C19.5974 12.2216 19.5147 12.3042 19.5147 12.4062C19.5147 12.5082 19.5974 12.5908 19.6993 12.5908Z" fill="#000080"/>
<path d="M19.6993 11.7785C19.8013 11.7785 19.8839 11.6958 19.8839 11.5939C19.8839 11.4919 19.8013 11.4093 19.6993 11.4093C19.5974 11.4093 19.5147 11.4919 19.5147 11.5939C19.5147 11.6958 19.5974 11.7785 19.6993 11.7785Z" fill="#000080"/>
<path d="M19.4889 10.9939C19.5908 10.9939 19.6735 10.9113 19.6735 10.8093C19.6735 10.7073 19.5908 10.6247 19.4889 10.6247C19.3869 10.6247 19.3043 10.7073 19.3043 10.8093C19.3043 10.9113 19.3869 10.9939 19.4889 10.9939Z" fill="#000080"/>
<path d="M19.0837 10.2905C19.1856 10.2905 19.2683 10.2078 19.2683 10.1058C19.2683 10.0039 19.1856 9.92123 19.0837 9.92123C18.9817 9.92123 18.899 10.0039 18.899 10.1058C18.899 10.2078 18.9817 10.2905 19.0837 10.2905Z" fill="#000080"/>
<path d="M18.5095 9.71634C18.6115 9.71634 18.6941 9.63368 18.6941 9.53172C18.6941 9.42976 18.6115 9.34711 18.5095 9.34711C18.4075 9.34711 18.3249 9.42976 18.3249 9.53172C18.3249 9.63368 18.4075 9.71634 18.5095 9.71634Z" fill="#000080"/>
<path d="M17.8061 9.31116C17.908 9.31116 17.9907 9.2285 17.9907 9.12654C17.9907 9.02458 17.908 8.94193 17.8061 8.94193C17.7041 8.94193 17.6215 9.02458 17.6215 9.12654C17.6215 9.2285 17.7041 9.31116 17.8061 9.31116Z" fill="#000080"/>
<path d="M17.0215 9.10068C17.1235 9.10068 17.2061 9.01802 17.2061 8.91606C17.2061 8.8141 17.1235 8.73145 17.0215 8.73145C16.9196 8.73145 16.8369 8.8141 16.8369 8.91606C16.8369 9.01802 16.9196 9.10068 17.0215 9.10068Z" fill="#000080"/>
<path d="M16.6153 12.8308C17.0741 12.8308 17.4461 12.4589 17.4461 12C17.4461 11.5412 17.0741 11.1693 16.6153 11.1693C16.1565 11.1693 15.7845 11.5412 15.7845 12C15.7845 12.4589 16.1565 12.8308 16.6153 12.8308Z" fill="#000080"/>
</svg>
