<svg width="34" height="24" viewBox="0 0 34 24" fill="none" xmlns="http://www.w3.org/2000/svg">
<path d="M0 8.30769H33.2308V15.6923H0V8.30769Z" fill="#EEEEEE"/>
<path d="M29.5385 0H3.69231C2.71305 0 1.77389 0.38901 1.08145 1.08145C0.38901 1.77389 0 2.71305 0 3.69231L0 8.30769H33.2308V3.69231C33.2308 2.71305 32.8418 1.77389 32.1493 1.08145C31.4569 0.38901 30.5177 0 29.5385 0Z" fill="#AE1F28"/>
<path d="M3.69231 24H29.5385C30.5177 24 31.4569 23.611 32.1493 22.9185C32.8418 22.2261 33.2308 21.287 33.2308 20.3077V15.6923H0V20.3077C0 21.287 0.38901 22.2261 1.08145 22.9185C1.77389 23.611 2.71305 24 3.69231 24Z" fill="#20478B"/>
</svg>
