<svg width="34" height="24" viewBox="0 0 34 24" fill="none" xmlns="http://www.w3.org/2000/svg">
<path d="M29.5384 0H8.30768V24H29.5384C30.5177 24 31.4569 23.611 32.1493 22.9185C32.8417 22.2261 33.2308 21.287 33.2308 20.3077V3.69231C33.2308 2.71305 32.8417 1.77389 32.1493 1.08145C31.4569 0.38901 30.5177 0 29.5384 0ZM20.7692 18.8972C18.9331 18.8972 17.1722 18.1678 15.8739 16.8695C14.5755 15.5712 13.8461 13.8103 13.8461 11.9742C13.8461 8.54031 16.3486 5.69815 19.6274 5.15262C18.3875 5.72714 17.381 6.70795 16.7746 7.9326C16.1683 9.15726 15.9984 10.5523 16.2932 11.8867C16.588 13.221 17.3297 14.4147 18.3955 15.27C19.4613 16.1252 20.7873 16.5908 22.1538 16.5895C23.2969 16.589 24.416 16.2617 25.3793 15.6463C26.3425 15.0309 27.1098 14.153 27.5908 13.116C27.0452 16.3957 24.2031 18.8972 20.7692 18.8972ZM25.4861 9.27508L24.3664 11.1415L24.1744 8.97323L22.0532 8.48585L24.0563 7.63292L23.8652 5.46462L25.2941 7.10677L27.2972 6.25385L26.1784 8.12123L27.6074 9.76338L25.4861 9.27508Z" fill="#004600"/>
<path d="M3.69231 0C2.71305 0 1.77389 0.38901 1.08145 1.08145C0.38901 1.77389 0 2.71305 0 3.69231L0 20.3077C0 21.287 0.38901 22.2261 1.08145 22.9185C1.77389 23.611 2.71305 24 3.69231 24H8.30769V0H3.69231Z" fill="#EEEEEE"/>
<path d="M27.2972 6.25389L25.2941 7.10681L23.8652 5.46466L24.0563 7.63297L22.0532 8.48589L24.1745 8.97328L24.3665 11.1416L25.4861 9.27512L27.6074 9.76343L26.1785 8.12128L27.2972 6.25389Z" fill="white"/>
<path d="M22.1538 16.5896C20.7873 16.5908 19.4613 16.1253 18.3955 15.27C17.3297 14.4147 16.588 13.2211 16.2932 11.8867C15.9984 10.5523 16.1683 9.15729 16.7746 7.93264C17.381 6.70798 18.3875 5.72718 19.6274 5.15265C16.3486 5.69911 13.8461 8.54126 13.8461 11.9742C13.8461 13.8103 14.5755 15.5712 15.8739 16.8695C17.1722 18.1679 18.9331 18.8973 20.7692 18.8973C24.2031 18.8973 27.0452 16.3948 27.5907 13.116C27.11 14.1532 26.3428 15.0312 25.3795 15.6466C24.4161 16.2621 23.2969 16.5892 22.1538 16.5896Z" fill="white"/>
</svg>
