<svg width="34" height="24" viewBox="0 0 34 24" fill="none" xmlns="http://www.w3.org/2000/svg">
<path d="M0 20.3077C0 21.287 0.38901 22.2261 1.08145 22.9186C1.77389 23.611 2.71305 24 3.69231 24H29.5385C30.5177 24 31.4569 23.611 32.1493 22.9186C32.8418 22.2261 33.2308 21.287 33.2308 20.3077V16.6154H0V20.3077Z" fill="#DA0001"/>
<path d="M0 7.38461H33.2308V16.6154H0V7.38461Z" fill="#EEEEEE"/>
<path d="M33.2308 7.38462V3.69231C33.2308 2.71305 32.8418 1.77389 32.1493 1.08145C31.4569 0.38901 30.5177 0 29.5385 0H3.69231C2.71305 0 1.77389 0.38901 1.08145 1.08145C0.38901 1.77389 0 2.71305 0 3.69231L0 7.38462H33.2308Z" fill="#239F40"/>
<path d="M0 16.6154H33.2308V17.5385H0V16.6154Z" fill="#E96667"/>
<path d="M17.9676 9.20218C18.851 9.65449 20.772 11.928 18.7043 14.4923C19.9883 14.208 21.623 10.4234 17.9676 9.20218ZM15.2566 9.20218C11.6021 10.4234 13.236 14.208 14.52 14.4923C12.4523 11.928 14.3732 9.65449 15.2566 9.20218ZM16.5978 9.07018C16.6347 9.25203 17.6141 9.47264 17.4969 8.54126C17.3418 8.91787 16.8932 8.9068 16.6033 8.73234C16.2046 8.9548 15.8326 8.90034 15.6913 8.5228C15.5547 9.2188 16.2332 9.4228 16.5978 9.07018Z" fill="#BE1931"/>
<path d="M18.9581 11.9114C18.9443 10.7594 18.3332 9.74031 17.7314 9.3277C18.1283 9.81416 19.3486 12.4994 17.0067 14.2671L17.0501 9.56216L16.6117 9.17632L16.1732 9.5437L16.247 14.2939L16.2304 14.28C13.8646 12.5132 15.0923 9.81508 15.4901 9.3277C14.8883 9.74031 14.2763 10.7594 14.2634 11.9114C14.2514 12.9 14.7037 13.9819 15.9563 14.8699C15.4505 15.0002 14.9296 15.0626 14.4074 15.0554C14.8357 15.2889 15.6443 15.2326 16.26 15.1763L16.2609 15.2391L16.6283 15.6425L16.9975 15.2225V15.1745C17.6178 15.2317 18.444 15.2935 18.8797 15.0563C18.3402 15.0652 17.8021 14.9991 17.2809 14.8597C18.5215 13.9726 18.9701 12.8963 18.9581 11.9114Z" fill="#BE1931"/>
<path d="M0 6.46154H33.2308V7.38462H0V6.46154Z" fill="#7BC58C"/>
</svg>
