<svg width="34" height="24" viewBox="0 0 34 24" fill="none" xmlns="http://www.w3.org/2000/svg">
<path d="M33.2308 20.3077C33.2308 21.287 32.8418 22.2261 32.1493 22.9185C31.4569 23.611 30.5177 24 29.5385 24H3.69231C2.71305 24 1.77389 23.611 1.08145 22.9185C0.38901 22.2261 0 21.287 0 20.3077V3.69231C0 2.71305 0.38901 1.77389 1.08145 1.08145C1.77389 0.38901 2.71305 0 3.69231 0H29.5385C30.5177 0 31.4569 0.38901 32.1493 1.08145C32.8418 1.77389 33.2308 2.71305 33.2308 3.69231V20.3077Z" fill="#DE2910"/>
<path d="M10.2794 3.67105L10.9587 3.99966L11.5024 3.4772L11.4 4.2249L12.0646 4.5812L11.3224 4.71413L11.1895 5.45628L10.8332 4.79166L10.0855 4.89413L10.608 4.35043L10.2794 3.67105ZM14.5855 6.38582L14.2569 7.06428L14.7794 7.6089L14.0326 7.50551L13.6763 8.17105L13.5434 7.42797L12.8003 7.29505L13.4658 6.93874L13.3624 6.19197L13.9071 6.71443L14.5855 6.38582ZM13.7021 9.87413L13.9495 10.5867L14.7037 10.6024L14.1027 11.0575L14.3215 11.7803L13.7021 11.3492L13.0827 11.7803L13.3006 11.0575L12.6997 10.6024L13.4538 10.5867L13.7021 9.87413ZM10.2794 12.9018L10.9587 13.2304L11.5024 12.708L11.4 13.4557L12.0646 13.812L11.3224 13.9449L11.1895 14.687L10.8332 14.0224L10.0855 14.1249L10.608 13.5812L10.2794 12.9018ZM6.46152 5.4932L7.31905 7.95874L9.92767 8.01228L7.84798 9.5889L8.60398 12.0867L6.46152 10.596L4.31905 12.0867L5.07505 9.5889L2.99536 8.01228L5.60398 7.95874L6.46152 5.4932Z" fill="#FFDE02"/>
</svg>
