<svg width="20" height="20" viewBox="0 0 20 20" fill="none" xmlns="http://www.w3.org/2000/svg">
<path d="M13.7154 1.17181H6.28559C5.57535 1.17181 5.00098 1.74707 5.00098 2.45731V17.5427C5.00098 18.2529 5.57535 18.8282 6.28559 18.8282H13.7154C14.4256 18.8282 15 18.2529 15 17.5427V2.45731C15 1.74707 14.4247 1.17181 13.7154 1.17181ZM12.8675 1.97646C13.0492 1.97646 13.1966 2.12292 13.1966 2.30467C13.1966 2.48643 13.0492 2.63377 12.8675 2.63377C12.6857 2.63377 12.5393 2.48643 12.5393 2.30467C12.5393 2.12292 12.6848 1.97646 12.8675 1.97646ZM8.27692 2.10175H11.7214V2.47672H8.27692V2.10175ZM10 18.0385C9.49977 18.0385 9.0948 17.6327 9.0948 17.1333C9.0948 16.6331 9.49977 16.2281 10 16.2281C10.5003 16.2281 10.9053 16.6331 10.9053 17.1333C10.9044 17.6327 10.5003 18.0385 10 18.0385ZM14.0356 15.4781H5.96355V3.34136H14.0356V15.4781Z" fill="#6D6D6D"/>
<path d="M8.48695 6.8335C8.1905 7.20229 8.01051 7.67873 8.01051 8.20016H12.0152C12.0152 7.67344 11.8308 7.19259 11.5282 6.82291L12.5667 5.72887C12.6496 5.64064 12.6496 5.49859 12.5667 5.41213C12.4837 5.32566 12.3496 5.32478 12.2667 5.41213L11.2185 6.51676C10.8832 6.24942 10.4659 6.08973 10.0124 6.08973C9.55364 6.08973 9.13278 6.25295 8.79575 6.52558L7.73965 5.41213C7.65583 5.32478 7.52172 5.32478 7.43879 5.41213C7.35585 5.49948 7.35585 5.64152 7.43879 5.72887L8.48695 6.8335ZM10.7086 6.92173C10.9141 6.92173 11.0826 7.09642 11.0826 7.31523C11.0826 7.53139 10.915 7.70873 10.7086 7.70873C10.5021 7.70873 10.3345 7.53139 10.3345 7.31523C10.3327 7.09642 10.5003 6.92173 10.7086 6.92173ZM9.29336 6.92173C9.49893 6.92173 9.66745 7.09642 9.66745 7.31523C9.66745 7.53139 9.49893 7.70873 9.29336 7.70873C9.08691 7.70873 8.91927 7.53139 8.91927 7.31523C8.91927 7.09642 9.08779 6.92173 9.29336 6.92173Z" fill="#6D6D6D"/>
<path d="M7.99988 11.9835H8.35544V13.021C8.35544 13.3325 8.60866 13.5848 8.91922 13.5848C9.23067 13.5848 9.48212 13.3325 9.48212 13.021V11.9835H10.4597V13.021C10.4597 13.3325 10.7129 13.5848 11.0226 13.5848C11.3349 13.5848 11.5864 13.3325 11.5864 13.021V11.9835H11.9711V8.42871H8.00076L7.99988 11.9835Z" fill="#6D6D6D"/>
<path d="M12.3257 8.99164V10.6203C12.3257 10.9318 12.5771 11.1841 12.8886 11.1841C13.2 11.1841 13.4524 10.9318 13.4524 10.6203V8.99164C13.4524 8.67931 13.2 8.42786 12.8886 8.42786C12.5771 8.42786 12.3257 8.68019 12.3257 8.99164Z" fill="#6D6D6D"/>
<path d="M7.11149 11.1841C7.42294 11.1841 7.67439 10.9318 7.67439 10.6203V8.99164C7.67439 8.67931 7.42294 8.42786 7.11149 8.42786C6.80092 8.42786 6.54859 8.67931 6.54859 8.99164V10.6203C6.5477 10.9318 6.80004 11.1841 7.11149 11.1841Z" fill="#6D6D6D"/>
</svg>
