<svg width="20" height="20" viewBox="0 0 20 20" fill="none" xmlns="http://www.w3.org/2000/svg">
<path d="M13.3977 10.5655V4.07774C13.3977 3.52287 12.958 3.06402 12.4261 3.06402H11.8636V2.29573C11.8636 1.71951 11.4136 1.25 10.8614 1.25H8.16136C7.60909 1.25 7.15909 1.71951 7.15909 2.29573V3.06402H6.59659C6.06477 3.06402 5.625 3.52287 5.625 4.07774V15.7088C5.625 16.2637 6.06477 16.7226 6.59659 16.7226H9.54205C10.2477 17.971 11.5466 18.75 12.9375 18.75C15.1057 18.75 16.875 16.904 16.875 14.6418C16.875 12.561 15.3614 10.8003 13.3977 10.5655ZM7.875 2.29573C7.875 2.13567 8.00795 1.99695 8.16136 1.99695H10.8511C11.0148 1.99695 11.1477 2.13567 11.1477 2.29573V3.06402H7.875V2.29573ZM7.52727 12.0168C7.30227 12.0168 7.11818 12.2088 7.11818 12.4436V14.6951C7.11818 14.9299 7.30227 15.1113 7.52727 15.1113H9.02045C9.05114 15.4101 9.1125 15.6982 9.20455 15.9756H6.59659C6.45341 15.9756 6.34091 15.8582 6.34091 15.7088V4.07774C6.34091 3.92835 6.45341 3.81098 6.59659 3.81098H12.4261C12.5693 3.81098 12.6818 3.92835 12.6818 4.07774V10.5442C12.4568 10.5549 12.2318 10.5976 12.017 10.6509V8.70884C12.017 8.47409 11.833 8.28201 11.608 8.28201H7.41477C7.18977 8.28201 7.01591 8.47409 7.01591 8.70884V10.9604C7.01591 11.1951 7.2 11.3765 7.41477 11.3765H10.5443C10.3091 11.5579 10.1045 11.7713 9.91023 12.0061H7.52727V12.0168ZM12.9375 17.7896C11.9659 17.7896 11.0455 17.2988 10.483 16.4665C10.4011 16.3384 10.3193 16.1997 10.2477 16.061C10.0739 15.7088 9.97159 15.3247 9.93068 14.9405C9.92045 14.8445 9.92045 14.7378 9.92045 14.6418C9.92045 13.7454 10.2886 12.8918 10.9227 12.2942C11.4443 11.8034 12.1295 11.5152 12.8352 11.4939C12.8659 11.4939 12.8966 11.4939 12.9375 11.4939C13.0398 11.4939 13.1318 11.4939 13.2341 11.5046C14.7886 11.6646 15.9545 13.0091 15.9545 14.6418C15.9545 16.3811 14.6045 17.7896 12.9375 17.7896Z" fill="#6D6D6D"/>
<path d="M12.0687 4.98481V7.22567C12.0687 7.46042 11.8846 7.6525 11.6596 7.6525H7.46646C7.24146 7.6525 7.05737 7.46042 7.05737 7.22567V4.98481C7.05737 4.75006 7.24146 4.55798 7.46646 4.55798H11.6596C11.8846 4.55798 12.0687 4.75006 12.0687 4.98481Z" fill="#6D6D6D"/>
<path d="M14.2667 16.5718C14.1808 16.6614 14.0758 16.7012 13.9612 16.7012C13.8467 16.7012 13.7417 16.6614 13.6558 16.5718L12.6535 15.5161L12.644 15.4762C12.6344 15.4364 12.6249 15.3966 12.6249 15.3567V13.3649C12.6249 13.1159 12.8158 12.9167 13.0544 12.9167C13.169 12.9167 13.274 12.9665 13.3599 13.0462C13.4458 13.1258 13.484 13.2453 13.484 13.3649V15.1177L14.2667 15.9344C14.429 16.1136 14.429 16.4025 14.2667 16.5718Z" fill="#6D6D6D"/>
</svg>
