<svg width="20" height="20" viewBox="0 0 20 20" fill="none" xmlns="http://www.w3.org/2000/svg">
<g clip-path="url(#clip0_443_2052)">
<mask id="mask0_443_2052" style="mask-type:luminance" maskUnits="userSpaceOnUse" x="0" y="0" width="20" height="20">
<path d="M0 0H20V20H0V0Z" fill="white"/>
</mask>
<g mask="url(#mask0_443_2052)">
<path fill-rule="evenodd" clip-rule="evenodd" d="M9.9998 1.99982C5.58371 1.99982 1.99963 5.58389 1.99963 9.99998C1.99963 14.4161 5.58371 18.0001 9.9998 18.0001C14.4159 18.0001 18 14.4161 18 9.99998C18 5.58389 14.4159 1.99982 9.9998 1.99982ZM13.6319 13.08L13.0799 13.6321C12.7679 13.9441 12.2638 13.9441 11.9518 13.6321L9.51179 11.192C8.53577 11.536 7.39974 11.328 6.61573 10.544C5.72771 9.65597 5.57571 8.31194 6.14372 7.26392L8.02376 9.14396L9.15178 8.01594L7.26374 6.1359C8.31976 5.56789 9.65579 5.71989 10.5438 6.60791C11.3278 7.39193 11.5358 8.52795 11.1918 9.50397L13.6319 11.944C13.9439 12.256 13.9439 12.768 13.6319 13.08Z" fill="#6D6D6D"/>
</g>
</g>
<defs>
<clipPath id="clip0_443_2052">
<rect width="20" height="20" fill="white"/>
</clipPath>
</defs>
</svg>
