<svg width="20" height="20" viewBox="0 0 20 20" fill="none" xmlns="http://www.w3.org/2000/svg">
<path d="M8.99653 4.18565C8.99653 4.00381 8.84895 3.85623 8.66711 3.85623H8.40357V2.09381C8.40357 1.82091 8.18233 1.59967 7.90943 1.59967C7.63654 1.59967 7.4153 1.82091 7.4153 2.09381V3.85623H5.76752V2.09381C5.76752 1.82091 5.54627 1.59967 5.27338 1.59967C5.00048 1.59967 4.77924 1.82091 4.77924 2.09381V3.85623H4.5157C4.33386 3.85623 4.18628 4.00381 4.18628 4.18565V5.84167H8.99653V4.18565Z" fill="#6D6D6D"/>
<path d="M9.54022 13.2689C9.89435 13.2689 10.1826 12.9806 10.1826 12.6265V7.47233C10.1826 7.1182 9.89435 6.82996 9.54022 6.82996C9.15074 6.82996 3.81278 6.82996 3.64287 6.82996C3.28873 6.82996 3.00049 7.1182 3.00049 7.47233V12.6265C3.00049 12.9806 3.28873 13.2689 3.64287 13.2689H9.54022ZM7.71455 10.2451L7.16309 11.5239C7.05465 11.7759 6.76215 11.8895 6.5138 11.7819C6.26311 11.6738 6.14781 11.3833 6.25586 11.1326L6.50984 10.5436H5.92215C5.56842 10.5436 5.32754 10.1809 5.46853 9.85374L6.01999 8.57492C6.12804 8.32422 6.41859 8.20893 6.66929 8.31665C6.91998 8.4247 7.03528 8.71558 6.92722 8.96627L6.67324 9.55528H7.26093C7.61467 9.55528 7.85554 9.91795 7.71455 10.2451Z" fill="#6D6D6D"/>
<path d="M16.5274 6.17716C16.5274 5.9946 16.3794 5.84662 16.1969 5.84662H14.653C14.4705 5.84662 14.3225 5.9946 14.3225 6.17716V7.56536H16.5274V6.17716H16.5274Z" fill="#6D6D6D"/>
<path d="M16.8347 8.55682H14.0151C13.9239 8.55682 13.8498 8.63094 13.8498 8.72219V10.056C13.8498 10.6345 14.3189 11.1059 14.9 11.1059H14.9293V16.5048C14.9293 17.0039 14.5244 17.4088 14.0253 17.4088H7.99029C7.52349 17.4088 7.13839 17.0537 7.09096 16.5994C7.08437 16.5374 7.08602 16.5906 7.08602 15.6111H7.48462C7.75705 15.6111 7.97876 15.3894 7.97876 15.117V14.2572H5.20435V15.117C5.20435 15.3894 5.42605 15.6111 5.69848 15.6111H6.09445C6.09445 16.5931 6.09366 16.5407 6.09676 16.5994C6.14617 17.6005 6.97632 18.4003 7.99029 18.4003H14.025C15.0719 18.4003 15.9208 17.5514 15.9208 16.5045V11.1059H15.9498C16.5299 11.1059 17 10.6358 17 10.056V8.72219C17 8.63094 16.9259 8.55682 16.8347 8.55682Z" fill="#6D6D6D"/>
</svg>
