<svg width="20" height="20" viewBox="0 0 20 20" fill="none" xmlns="http://www.w3.org/2000/svg">
<path d="M17.1132 9.32788H15.4609H15.2399C14.7515 9.32788 14.3553 9.72402 14.3553 10.2141V10.3102C14.3553 10.8008 14.7515 11.1971 15.2406 11.1971H16.8945H17.1132C17.6026 11.1971 17.9999 10.7991 17.9999 10.3102L17.999 10.2129C17.9999 9.72402 17.6026 9.32788 17.1132 9.32788Z" fill="#6D6D6D"/>
<path d="M17.1141 7.11695H16.7239V2.82944C16.7239 2.21322 16.2198 1.70917 15.6034 1.70917H8.21084C7.59462 1.70917 7.09057 2.21346 7.09057 2.82944V5.90557C5.59947 6.7485 4.06153 7.62905 4.05821 7.63118C3.22333 7.97478 2.00012 9.08346 2.00012 11.7015C2.00012 11.9353 2.0155 12.1511 2.03704 12.3596C2.0439 12.4206 2.05147 12.4793 2.05976 12.5382C2.08129 12.6913 2.10827 12.8378 2.14045 12.977C2.15205 13.0267 2.16104 13.0785 2.17358 13.126C2.21689 13.287 2.26706 13.4379 2.32338 13.5816C2.35177 13.6528 2.38254 13.7177 2.41354 13.7844C2.44667 13.8547 2.48004 13.9238 2.51577 13.9884C2.55718 14.0662 2.59859 14.1412 2.64403 14.2125C2.65492 14.229 2.66675 14.2442 2.67787 14.261C3.75602 15.8908 5.74501 15.8981 5.74501 15.8981H7.09057V17.171C7.09057 17.7865 7.59462 18.2906 8.21084 18.2906H15.6031C16.2196 18.2906 16.7236 17.7863 16.7236 17.171V15.6184H16.8945V15.6174H17.1124C17.6025 15.6174 17.9998 15.2211 17.9989 14.731L17.9998 14.6344C17.9989 14.145 17.6025 13.7498 17.1131 13.7498H16.8945H15.4607H15.2396C14.7503 13.7498 14.3551 14.146 14.3551 14.6351V14.7333C14.3551 15.2213 14.7512 15.6191 15.2403 15.6191H15.9441V16.2187H7.86983V8.17498C8.27544 7.91775 8.651 7.67022 8.86516 7.50434C9.95017 6.6652 10.98 5.99692 11.1194 5.39087C11.3009 4.6045 10.6973 3.9419 9.6501 4.48595C9.32022 4.65728 8.64319 5.03283 7.86983 5.46707V3.48447L15.9441 3.48565V7.11648H15.4607V7.11742H15.2408C14.7512 7.11742 14.3539 7.51357 14.3539 8.00413V8.10021C14.3539 8.59053 14.7512 8.98573 15.2396 8.98573H15.4595H16.8933H17.1136C17.6025 8.98573 17.9989 8.58958 17.9989 8.10021V8.00152C17.9998 7.51428 17.6037 7.11695 17.1141 7.11695ZM11.906 16.612C12.2165 16.612 12.4669 16.8627 12.4669 17.1724C12.4669 17.4829 12.2163 17.7326 11.906 17.7326C11.5967 17.7326 11.3468 17.4822 11.3468 17.1724C11.3473 16.8636 11.5979 16.612 11.906 16.612ZM13.09 2.78779H10.7245C10.6502 2.78779 10.5886 2.72745 10.5886 2.6529C10.5886 2.57718 10.6502 2.51683 10.7245 2.51683H13.09C13.1643 2.51683 13.2248 2.57694 13.2248 2.6529C13.2248 2.72721 13.1643 2.78779 13.09 2.78779Z" fill="#6D6D6D"/>
<path d="M17.1132 11.5389H16.8945H15.2399C14.7515 11.5389 14.3541 11.9363 14.3541 12.4254V12.5224C14.3541 13.012 14.7505 13.4082 15.2399 13.4082H15.4597H16.8936H17.1127C17.6028 13.4082 17.998 13.012 17.9991 12.5224V12.4254C17.9989 11.9363 17.6037 11.5389 17.1132 11.5389Z" fill="#6D6D6D"/>
</svg>
