<svg width="20" height="20" viewBox="0 0 20 20" fill="none" xmlns="http://www.w3.org/2000/svg">
<path d="M13.3542 5.48483C13.3542 5.2325 13.1494 5.02772 12.8971 5.02772H12.5314V2.5822C12.5314 2.20354 12.2244 1.89655 11.8458 1.89655C11.4671 1.89655 11.1601 2.20354 11.1601 2.5822V5.02772H8.87367V2.5822C8.87367 2.20354 8.56668 1.89655 8.18801 1.89655C7.80935 1.89655 7.50236 2.20354 7.50236 2.5822V5.02772H7.13667C6.88435 5.02772 6.67957 5.2325 6.67957 5.48483V7.7827H13.3542V5.48483Z" fill="#6D6D6D"/>
<path d="M14.1086 18.0886C14.6 18.0886 15 17.6887 15 17.1973V10.0454C15 9.55402 14.6 9.15405 14.1086 9.15405C13.5682 9.15405 6.16131 9.15405 5.92554 9.15405C5.43415 9.15405 5.03418 9.55402 5.03418 10.0454V17.1973C5.03418 17.6887 5.43415 18.0886 5.92554 18.0886H14.1086ZM11.5754 13.8929L10.8102 15.6674C10.6597 16.017 10.2538 16.1746 9.90921 16.0253C9.56136 15.8753 9.40137 15.4722 9.5513 15.1243L9.90373 14.307H9.08825C8.59741 14.307 8.26317 13.8038 8.45882 13.3498L9.22401 11.5753C9.37394 11.2275 9.77711 11.0675 10.125 11.217C10.4728 11.3669 10.6328 11.7705 10.4829 12.1184L10.1305 12.9357H10.9459C11.4368 12.9357 11.771 13.4389 11.5754 13.8929Z" fill="#6D6D6D"/>
</svg>
