<svg width="20" height="20" viewBox="0 0 20 20" fill="none" xmlns="http://www.w3.org/2000/svg">
<path d="M2.31709 11.1763L3.37915 11.3503C3.54694 12.1636 3.86806 12.9375 4.32534 13.6306L3.6964 14.5084C3.5659 14.686 3.56814 14.9285 3.70193 15.1037C3.86051 15.2975 4.02902 15.4831 4.20675 15.6595C4.38605 15.8391 4.57088 16.0046 4.76123 16.1646C4.93656 16.2987 5.17932 16.3009 5.3571 16.1702L6.23433 15.5409C6.92679 15.9985 7.70011 16.3198 8.51293 16.4877L8.68673 17.5506C8.71983 17.768 8.89331 17.937 9.11154 17.9643C9.2627 17.9815 9.41499 17.9919 9.57058 17.9997C9.64613 18.0034 9.71993 17.9761 9.7749 17.9241C9.82987 17.8722 9.86129 17.8 9.86188 17.7244V15.5136C9.86108 15.3646 9.7427 15.2428 9.59375 15.2378C6.80606 15.0933 4.61987 12.7908 4.61987 9.99937C4.61987 7.20794 6.80606 4.90548 9.59375 4.76096C9.7427 4.75592 9.86108 4.63415 9.86188 4.4851V2.27629C9.8615 2.20068 9.83029 2.12849 9.77546 2.07641C9.72062 2.02432 9.64691 1.9969 9.57138 2.00042C9.41635 2.00686 9.26308 2.01772 9.11151 2.03297C8.89323 2.06271 8.72045 2.23237 8.6867 2.45007L8.5129 3.51295C7.70011 3.68107 6.92682 4.00246 6.23431 4.45997L5.35707 3.83047C5.17929 3.69968 4.93653 3.70192 4.76121 3.836C4.56789 3.99479 4.38282 4.16339 4.20672 4.34109C4.02766 4.51628 3.85909 4.70188 3.7019 4.89693C3.56756 5.07237 3.56531 5.31545 3.69637 5.49333L4.32532 6.37113C3.86814 7.06401 3.54702 7.83758 3.37912 8.65055L2.31706 8.82435C2.09958 8.85756 1.93061 9.03115 1.90328 9.24946C1.84897 9.74451 1.84897 10.244 1.90328 10.7391C1.92781 10.961 2.09683 11.1396 2.31709 11.1763Z" fill="#6D6D6D"/>
<path d="M9.59833 5.87076C7.41898 6.00882 5.72205 7.81665 5.72205 10.0004C5.72205 12.1841 7.419 13.9919 9.59833 14.13C9.66767 14.1328 9.73516 14.1071 9.785 14.0588C9.83485 14.0105 9.86269 13.9439 9.86205 13.8745V6.12621C9.86272 6.05679 9.83488 5.99018 9.785 5.94189C9.73516 5.89359 9.66767 5.86788 9.59833 5.87076Z" fill="#6D6D6D"/>
<path d="M11.7927 6.13835H10.4135V6.69006H11.7927C12.2492 6.68869 12.6189 6.31899 12.6203 5.86248V4.15658C13.0003 4.02224 13.2283 3.63365 13.1601 3.23639C13.0919 2.83913 12.7475 2.54877 12.3444 2.54877C11.9414 2.54877 11.5969 2.83913 11.5288 3.23639C11.4606 3.63365 11.6886 4.02224 12.0686 4.15658V5.86248C12.0686 6.01485 11.9451 6.13835 11.7927 6.13835Z" fill="#6D6D6D"/>
<path d="M10.4135 7.79337H13.172C13.3244 7.79337 13.4479 7.66987 13.4479 7.51751C13.4479 7.36514 13.3244 7.24164 13.172 7.24164H10.4135V7.79337Z" fill="#6D6D6D"/>
<path d="M10.4135 13.8623H11.7927C11.9451 13.8623 12.0686 13.9858 12.0686 14.1381V15.844C11.6886 15.9784 11.4606 16.367 11.5288 16.7642C11.597 17.1615 11.9414 17.4518 12.3445 17.4518C12.7475 17.4518 13.092 17.1615 13.1601 16.7642C13.2283 16.367 13.0004 15.9784 12.6203 15.844V14.1381C12.619 13.6816 12.2493 13.3119 11.7928 13.3105H10.4135V13.8623H10.4135Z" fill="#6D6D6D"/>
<path d="M14.5513 11.1037H10.4135V11.6554H14.5513C14.7037 11.6554 14.8272 11.7789 14.8272 11.9313V13.3613C14.4472 13.4957 14.2192 13.8843 14.2874 14.2815C14.3556 14.6788 14.7 14.9691 15.1031 14.9691C15.5061 14.9691 15.8506 14.6788 15.9187 14.2815C15.9869 13.8843 15.7589 13.4957 15.3789 13.3613V11.9313C15.3775 11.4748 15.0078 11.1051 14.5513 11.1037Z" fill="#6D6D6D"/>
<path d="M17.3099 9.17273C16.9605 9.17417 16.6496 9.39496 16.5331 9.72444H10.4135V10.2761H16.5331C16.6741 10.6719 17.0896 10.8988 17.4987 10.8036C17.9079 10.7083 18.1804 10.3212 18.1321 9.9039C18.0838 9.48662 17.73 9.17198 17.3099 9.17273Z" fill="#6D6D6D"/>
<path d="M13.4479 12.483C13.4479 12.3307 13.3244 12.2072 13.172 12.2072H10.4135V12.7589H13.172C13.3244 12.7589 13.4479 12.6354 13.4479 12.483Z" fill="#6D6D6D"/>
<path d="M15.3789 8.06931V6.63925C15.7589 6.5049 15.9869 6.11632 15.9187 5.71906C15.8506 5.3218 15.5061 5.03143 15.1031 5.03143C14.7 5.03143 14.3556 5.3218 14.2874 5.71906C14.2192 6.11632 14.4472 6.5049 14.8272 6.63925V8.06931C14.8272 8.22167 14.7037 8.34518 14.5513 8.34518H10.4135V8.89688H14.5513C15.0079 8.89549 15.3776 8.52578 15.3789 8.06931Z" fill="#6D6D6D"/>
</svg>
