<svg width="20" height="20" viewBox="0 0 20 20" fill="none" xmlns="http://www.w3.org/2000/svg">
<path d="M10.396 12.069V5.60308H8.09368V12.0678C7.28616 12.5004 6.72728 13.3631 6.72728 14.3673C6.73721 15.05 7.00686 15.7013 7.47801 16.1805C7.94916 16.6597 8.584 16.9284 9.2454 16.9284C9.9068 16.9285 10.5417 16.66 11.013 16.1809C11.4842 15.7018 11.754 15.0506 11.7641 14.3679C11.7641 13.3637 11.2058 12.501 10.3965 12.0696L10.396 12.069ZM12.1227 3.59592C12.1227 1.95835 10.8311 0.625 9.24482 0.625C7.65855 0.625 6.36698 1.95894 6.36698 3.59592V11.1581C5.93578 11.5656 5.59154 12.0614 5.35619 12.6138C5.12083 13.1662 4.99953 13.7632 5 14.3667C5 16.7827 6.90513 18.75 9.2454 18.75C11.5857 18.75 13.4902 16.7832 13.4902 14.3667C13.4902 13.1272 12.9849 11.9721 12.1232 11.1569V3.59711L12.1227 3.59592ZM12.3385 14.3685C12.3374 15.215 12.0111 16.0265 11.4311 16.625C10.8511 17.2234 10.0648 17.5598 9.24482 17.5604C8.42496 17.5593 7.63898 17.2226 7.05925 16.6241C6.47952 16.0257 6.15336 15.2143 6.15229 14.3679C6.15229 13.3013 6.668 12.3221 7.51984 11.7309V3.59711C7.51984 2.61492 8.29283 1.81456 9.24482 1.81456C10.1968 1.81456 10.9715 2.61433 10.9715 3.59711V11.7315C11.392 12.0208 11.7368 12.4128 11.9753 12.8727C12.2137 13.3326 12.3385 13.8468 12.3385 14.3685ZM13.0349 5.60308L15.625 7.14677V4.06057L13.0349 5.60308Z" fill="#6D6D6D"/>
</svg>
