<svg width="20" height="20" viewBox="0 0 20 20" fill="none" xmlns="http://www.w3.org/2000/svg">
<path d="M17.2085 4.16224L14.6851 2.06488C14.341 1.77814 13.8249 1.8191 13.53 2.17139C13.2432 2.51549 13.2924 3.03163 13.6365 3.32657L16.1516 5.42392C16.4957 5.71067 17.0119 5.66971 17.3068 5.31742C17.3763 5.23514 17.4288 5.13998 17.4615 5.03737C17.4941 4.93477 17.5063 4.82673 17.4971 4.71945C17.488 4.61216 17.4578 4.50772 17.4083 4.41211C17.3588 4.3165 17.2909 4.23159 17.2085 4.16224ZM3.21524 5.42392L5.73042 3.32657C6.08271 3.03163 6.13187 2.51549 5.83693 2.17139C5.76901 2.08851 5.68531 2.01994 5.59068 1.96965C5.49606 1.91937 5.39239 1.88838 5.28569 1.87847C5.17899 1.86856 5.07139 1.87994 4.96912 1.91194C4.86686 1.94394 4.77196 1.99592 4.68994 2.06488L2.16657 4.16224C2.0842 4.23159 2.01632 4.3165 1.96679 4.41211C1.91727 4.50772 1.88708 4.61216 1.87795 4.71945C1.86882 4.82673 1.88093 4.93477 1.91358 5.03737C1.94623 5.13998 1.99879 5.23514 2.06825 5.31742C2.355 5.66971 2.87114 5.71067 3.21524 5.42392ZM9.68754 3.33476C7.73185 3.33487 5.85631 4.11187 4.47351 5.49482C3.09071 6.87778 2.31393 8.7534 2.31404 10.7091C2.31414 12.6648 3.09114 14.5403 4.47409 15.9231C5.85705 17.3059 7.73267 18.0827 9.68836 18.0826C10.6567 18.0825 11.6156 17.8918 12.5102 17.5211C13.4048 17.1505 14.2177 16.6073 14.9024 15.9225C15.5871 15.2378 16.1302 14.4248 16.5007 13.5302C16.8712 12.6355 17.0619 11.6766 17.0619 10.7083C17.0618 9.73991 16.871 8.78105 16.5004 7.88642C16.1298 6.9918 15.5866 6.17894 14.9018 5.49424C14.217 4.80955 13.4041 4.26644 12.5094 3.89591C11.6148 3.52539 10.6559 3.33471 9.68754 3.33476ZM9.68754 16.4432C6.52512 16.4432 3.95259 13.8707 3.95259 10.7083C3.95259 7.54585 6.52512 4.97332 9.68754 4.97332C12.85 4.97332 15.4225 7.54585 15.4225 10.7083C15.4225 13.8707 12.85 16.4432 9.68754 16.4432Z" fill="#6D6D6D"/>
<path d="M10.7636 7.91789L10.947 7.65778C10.9956 7.58879 11.0703 7.54243 11.1547 7.5289C11.2391 7.51537 11.3262 7.53578 11.397 7.58563L12.4638 8.33748C12.5345 8.38733 12.583 8.46254 12.5987 8.54657C12.6143 8.6306 12.5958 8.71657 12.5472 8.78555L12.3638 9.04566L13.1639 9.60955C13.2347 9.6594 13.2832 9.73462 13.2988 9.81865C13.3145 9.90268 13.2959 9.98864 13.2473 10.0576L10.3142 14.2194C10.2656 14.2884 10.1909 14.3348 10.1065 14.3483C10.0221 14.3618 9.93492 14.3414 9.86419 14.2916L6.66379 12.036C6.59305 11.9862 6.54453 11.9109 6.5289 11.8269C6.51326 11.7429 6.53179 11.6569 6.58041 11.5879L9.51352 7.42615C9.56214 7.35716 9.63686 7.3108 9.72126 7.29727C9.80565 7.28374 9.8928 7.30415 9.96354 7.354L10.7636 7.91789ZM10.3639 10.7506L11.2805 9.45007L8.66374 10.331L9.46384 10.8949L8.54725 12.1955L11.164 11.3145L10.3639 10.7506Z" fill="#6D6D6D"/>
</svg>
