<svg width="20" height="20" viewBox="0 0 20 20" fill="none" xmlns="http://www.w3.org/2000/svg">
<path d="M13.3516 2.5C14.7057 2.5 15.84 3.00847 16.7543 4.0254C17.6686 5.04233 18.1255 6.25165 18.125 7.65336C18.125 7.90073 18.1115 8.14479 18.0844 8.38555C18.0573 8.62632 18.0099 8.86324 17.9422 9.09631H12.8641L11.5031 6.99373H10.0406L8.94375 10.5392L7.98906 9.09631H2.05781C1.9901 8.86269 1.94271 8.62549 1.91562 8.38473C1.88854 8.14396 1.875 7.90705 1.875 7.67398C1.875 6.25852 2.32865 5.04233 3.23594 4.0254C4.14323 3.00847 5.27396 2.5 6.62812 2.5C7.27812 2.5 7.89102 2.63055 8.46681 2.89166C9.0426 3.15276 9.55367 3.51693 10 3.98417C10.4333 3.51693 10.9379 3.15276 11.5137 2.89166C12.0895 2.63055 12.7021 2.5 13.3516 2.5ZM9.97969 18.125L3.25625 11.2607C3.175 11.1783 3.10052 11.0958 3.03281 11.0134C2.9651 10.9309 2.8974 10.8416 2.82969 10.7454H7.11562L8.51719 12.8686H9.95937L11.0563 9.30244L11.9906 10.7454H17.15L16.9469 10.9927L16.7437 11.2401L9.97969 18.125Z" fill="#E1512D"/>
</svg>
