<svg width="32" height="32" viewBox="0 0 32 32" fill="none" xmlns="http://www.w3.org/2000/svg">
<path d="M4.29164 10.9372V20.1973C4.29164 20.8611 4.8009 21.407 5.44256 21.407H12.7249L12.2156 23.3875H4.90275C3.30369 23.3768 2 22.0065 2 20.3258V10.798C2 9.11724 3.30369 7.74695 4.90275 7.74695H15.3424L14.2017 9.72745H5.44256C4.8009 9.72745 4.29164 10.2627 4.29164 10.9372Z" fill="#00FF21"/>
<path d="M28.2774 10.798V13.6884H25.9858V10.9372C25.9858 10.2734 25.4765 9.72745 24.8348 9.72745H17.7358L18.2451 7.74695H25.3645C26.9737 7.74695 28.2774 9.11724 28.2774 10.798Z" fill="#00FF21"/>
<path d="M28.2776 17.5423V20.3257C28.2776 22.0172 26.9739 23.3768 25.3748 23.3768H15.5972L16.7685 21.3963H24.8554C25.4869 21.3963 26.0063 20.861 26.0063 20.1866V17.5316H28.2776V17.5423Z" fill="#00FF21"/>
<path d="M30.3653 12.3503V18.7735C30.3653 19.2231 30.019 19.5764 29.6014 19.5764H28.2773V11.5474H29.6014C30.019 11.5474 30.3653 11.9113 30.3653 12.3503Z" fill="#00FF21"/>
<path d="M13.662 17.7565L12.9389 20.5399H6.17599C5.7584 20.5399 5.41211 20.1866 5.41211 19.737V11.4938C5.41211 11.0549 5.74822 10.6909 6.17599 10.6909H13.6518L9.84262 17.3069C9.73058 17.4996 9.86299 17.7565 10.0871 17.7565H13.662Z" fill="#00FF21"/>
<path d="M24.9672 11.4938V19.7369C24.9672 20.1759 24.6311 20.5399 24.2033 20.5399H17.2571L16.7478 21.3963L15.5867 23.3768L13.0201 27.7339C12.847 28.0336 12.4599 28.0872 12.2053 27.8623C12.0831 27.7553 12.022 27.5947 12.022 27.4341C12.022 27.3378 12.0525 27.2307 12.1035 27.1451L14.2525 23.3768L15.383 21.3963L15.8719 20.5399L19.1312 14.8125C19.345 14.4378 19.0904 13.956 18.6728 13.956H16.0553C15.6988 13.956 15.4442 13.6027 15.5358 13.2388L16.2182 10.6909L16.4729 9.72739L17.0025 7.74689L17.8886 4.40681C17.9497 4.16058 18.1636 4 18.408 4H18.52C18.8765 4 19.1312 4.35328 19.0395 4.71726L18.2552 7.74689L17.746 9.72739L17.5015 10.6909H24.2033C24.6311 10.6909 24.9672 11.0442 24.9672 11.4938Z" fill="#00FF21"/>
</svg>
