<svg width="20" height="20" viewBox="0 0 20 20" fill="none" xmlns="http://www.w3.org/2000/svg">
<g clip-path="url(#clip0_441_1081)">
<path d="M14.2 2H5.8C4.80625 2 4 2.67188 4 3.5V16.5C4 17.3281 4.80625 18 5.8 18H14.2C15.1938 18 16 17.3281 16 16.5V3.5C16 2.67188 15.1938 2 14.2 2ZM10 17C9.33625 17 8.8 16.5531 8.8 16C8.8 15.4469 9.33625 15 10 15C10.6638 15 11.2 15.4469 11.2 16C11.2 16.5531 10.6638 17 10 17ZM14.2 13.625C14.2 13.8313 13.9975 14 13.75 14H6.25C6.0025 14 5.8 13.8313 5.8 13.625V3.875C5.8 3.66875 6.0025 3.5 6.25 3.5H13.75C13.9975 3.5 14.2 3.66875 14.2 3.875V13.625Z" fill="white"/>
</g>
<defs>
<clipPath id="clip0_441_1081">
<rect width="12" height="16" fill="white" transform="translate(4 2)"/>
</clipPath>
</defs>
</svg>
