<svg width="140" height="140" viewBox="0 0 140 140" fill="none" xmlns="http://www.w3.org/2000/svg">
<path d="M85.3125 107.188H54.6875C51.0628 107.188 48.125 104.25 48.125 100.625V43.75C48.125 40.1253 51.0628 37.1875 54.6875 37.1875H85.3125C88.9372 37.1875 91.875 40.1253 91.875 43.75V100.625C91.875 104.25 88.9372 107.188 85.3125 107.188Z" fill="white"/>
<path d="M91.875 100.625V43.75C91.875 40.1253 88.9372 37.1875 85.3125 37.1875H59.0625C55.4378 37.1875 52.5 40.1253 52.5 43.75V100.625C52.5 104.25 55.4378 107.188 59.0625 107.188H85.3125C88.9372 107.188 91.875 104.25 91.875 100.625Z" fill="white"/>
<path d="M78.75 80.9375H61.25C58.8328 80.9375 56.875 78.9797 56.875 76.5625C56.875 74.1453 58.8328 72.1875 61.25 72.1875H78.75C81.1672 72.1875 83.125 74.1453 83.125 76.5625C83.125 78.9797 81.1672 80.9375 78.75 80.9375Z" fill="#00FF21"/>
<path d="M83.125 76.5625C83.125 74.1453 81.1672 72.1875 78.75 72.1875H65.625C63.2078 72.1875 61.25 74.1453 61.25 76.5625C61.25 78.9797 63.2078 80.9375 65.625 80.9375H78.75C81.1672 80.9375 83.125 78.9797 83.125 76.5625Z" fill="#00FF21"/>
<path d="M78.75 98.4375H61.25C58.8328 98.4375 56.875 96.4797 56.875 94.0625C56.875 91.6453 58.8328 89.6875 61.25 89.6875H78.75C81.1672 89.6875 83.125 91.6453 83.125 94.0625C83.125 96.4797 81.1672 98.4375 78.75 98.4375Z" fill="#00FF21"/>
<path d="M83.125 94.0625C83.125 91.6453 81.1672 89.6875 78.75 89.6875H65.625C63.2078 89.6875 61.25 91.6453 61.25 94.0625C61.25 96.4797 63.2078 98.4375 65.625 98.4375H78.75C81.1672 98.4375 83.125 96.4797 83.125 94.0625Z" fill="#00FF21"/>
<path d="M74.375 28.4375H65.625C63.2078 28.4375 61.25 30.3953 61.25 32.8125V37.1875H78.75V32.8125C78.75 30.3953 76.7922 28.4375 74.375 28.4375Z" fill="white"/>
<path d="M74.375 28.4375H70C67.5828 28.4375 65.625 30.3953 65.625 32.8125V37.1875H78.75V32.8125C78.75 30.3953 76.7922 28.4375 74.375 28.4375Z" fill="white"/>
<path d="M78.75 63.4375H61.25C58.8328 63.4375 56.875 61.4797 56.875 59.0625C56.875 56.6453 58.8328 54.6875 61.25 54.6875H78.75C81.1672 54.6875 83.125 56.6453 83.125 59.0625C83.125 61.4797 81.1672 63.4375 78.75 63.4375Z" fill="#00FF21"/>
<path d="M83.125 59.0625C83.125 56.6453 81.1672 54.6875 78.75 54.6875H65.625C63.2078 54.6875 61.25 56.6453 61.25 59.0625C61.25 61.4797 63.2078 63.4375 65.625 63.4375H78.75C81.1672 63.4375 83.125 61.4797 83.125 59.0625Z" fill="#00FF21"/>
<path d="M70 4.375C33.7553 4.375 4.375 33.7553 4.375 70C4.375 106.245 33.7553 135.625 70 135.625C106.245 135.625 135.625 106.245 135.625 70C135.625 33.7553 106.245 4.375 70 4.375ZM13.125 70C13.125 38.5897 38.5897 13.125 70 13.125C84.035 13.125 96.8734 18.2197 106.792 26.6459L26.6459 106.792C18.2197 96.8734 13.125 84.035 13.125 70ZM70 126.875C55.965 126.875 43.1266 121.78 33.2084 113.354L113.356 33.2063C121.78 43.1266 126.875 55.965 126.875 70C126.875 101.41 101.41 126.875 70 126.875Z" fill="#F74A5E"/>
</svg>
