<svg width="22" height="22" viewBox="0 0 22 22" fill="none" xmlns="http://www.w3.org/2000/svg">
<g clip-path="url(#clip0_15_1018)">
<path d="M20.1667 11.6111C20.0863 11.6116 20.0066 11.5962 19.9321 11.5657C19.8577 11.5353 19.7899 11.4905 19.7328 11.4339L11.0001 2.695L2.26728 11.4339C2.15037 11.534 1.99999 11.5863 1.84619 11.5804C1.69239 11.5744 1.54649 11.5107 1.43766 11.4018C1.32882 11.293 1.26506 11.1471 1.25912 10.9933C1.25318 10.8395 1.3055 10.6891 1.40561 10.5722L10.5723 1.40555C10.6868 1.29173 10.8417 1.22784 11.0031 1.22784C11.1646 1.22784 11.3194 1.29173 11.4339 1.40555L20.6006 10.5722C20.6847 10.658 20.7416 10.7667 20.7643 10.8847C20.787 11.0026 20.7744 11.1247 20.7281 11.2355C20.6818 11.3464 20.6039 11.4411 20.504 11.5079C20.4042 11.5747 20.2869 11.6106 20.1667 11.6111Z" fill="#6D6D6D"/>
<path d="M11 4.76056L3.66663 12.1183V19.5556C3.66663 19.8797 3.7954 20.1906 4.02461 20.4198C4.25382 20.649 4.56469 20.7778 4.88885 20.7778H9.16663V14.6667H12.8333V20.7778H17.1111C17.4352 20.7778 17.7461 20.649 17.9753 20.4198C18.2045 20.1906 18.3333 19.8797 18.3333 19.5556V12.0756L11 4.76056Z" fill="#6D6D6D"/>
</g>
<defs>
<clipPath id="clip0_15_1018">
<rect width="22" height="22" fill="white"/>
</clipPath>
</defs>
</svg>
