<svg width="32" height="32" viewBox="0 0 32 32" fill="none" xmlns="http://www.w3.org/2000/svg">
<path d="M17.42 27.0795C17.42 26.6108 17.2611 26.2096 16.9432 25.8759C16.6253 25.5421 16.2432 25.3752 15.7969 25.3752C15.3505 25.3752 14.9684 25.5421 14.6505 25.8759C14.3327 26.2096 14.1737 26.6108 14.1737 27.0795C14.1737 27.5482 14.3327 27.9494 14.6505 28.2832C14.9684 28.6169 15.3505 28.7838 15.7969 28.7838C16.2432 28.7838 16.6253 28.6169 16.9432 28.2832C17.2611 27.9494 17.42 27.5482 17.42 27.0795ZM21.6401 23.671V8.67326C21.6401 8.48863 21.5759 8.32886 21.4474 8.19393C21.3189 8.05901 21.1667 7.99155 20.9909 7.99155H10.6029C10.427 7.99155 10.2749 8.05901 10.1464 8.19393C10.0179 8.32886 9.95361 8.48863 9.95361 8.67326V23.671C9.95361 23.8556 10.0179 24.0154 10.1464 24.1503C10.2749 24.2852 10.427 24.3527 10.6029 24.3527H20.9909C21.1667 24.3527 21.3189 24.2852 21.4474 24.1503C21.5759 24.0154 21.6401 23.8556 21.6401 23.671ZM17.7446 5.60555C17.7446 5.37831 17.6364 5.2647 17.42 5.2647H14.1737C13.9573 5.2647 13.8491 5.37831 13.8491 5.60555C13.8491 5.83279 13.9573 5.94641 14.1737 5.94641H17.42C17.6364 5.94641 17.7446 5.83279 17.7446 5.60555ZM23.5879 5.2647V27.0795C23.5879 27.818 23.3309 28.4572 22.8169 28.9968C22.3029 29.5365 21.6942 29.8064 20.9909 29.8064H10.6029C9.89951 29.8064 9.29083 29.5365 8.77684 28.9968C8.26285 28.4572 8.00586 27.818 8.00586 27.0795V5.2647C8.00586 4.52617 8.26285 3.88707 8.77684 3.34738C9.29083 2.80769 9.89951 2.53784 10.6029 2.53784H20.9909C21.6942 2.53784 22.3029 2.80769 22.8169 3.34738C23.3309 3.88707 23.5879 4.52617 23.5879 5.2647Z" fill="#4C90EE"/>
</svg>
