<svg width="24" height="24" viewBox="0 0 24 24" fill="none" xmlns="http://www.w3.org/2000/svg">
<path d="M20.1359 8.15206C19.4014 6.59523 18.2381 5.28791 16.7727 4.37068C14.7344 3.09851 12.3201 2.69436 9.97954 3.23556C7.63901 3.77325 5.64641 5.19303 4.37423 7.23132C3.09854 9.26961 2.6944 11.6804 3.2356 14.0245C3.7768 16.365 5.19658 18.3576 7.23136 19.6298C8.66519 20.5259 10.3099 21.0003 11.9932 21.0003H12.1022C13.7785 20.9792 15.4091 20.4943 16.8219 19.6016C17.233 19.3416 17.3525 18.8004 17.0925 18.3892C16.8324 17.978 16.2912 17.8586 15.88 18.1186C14.7449 18.839 13.4306 19.2291 12.0811 19.2467C10.6965 19.2643 9.34345 18.8812 8.16264 18.1467C6.52147 17.1205 5.37932 15.518 4.94706 13.6344C4.5148 11.7507 4.83812 9.81081 5.86429 8.16964C7.9799 4.78537 12.4571 3.75217 15.8414 5.86777C17.0222 6.60577 17.957 7.65655 18.5474 8.90764C19.1237 10.1271 19.3486 11.4801 19.1975 12.8155C19.1448 13.297 19.4892 13.7328 19.9742 13.7855C20.4557 13.8382 20.8914 13.4938 20.9441 13.0088C21.1304 11.3466 20.8493 9.66673 20.1359 8.15206Z" fill="#F74A5E"/>
<path d="M14.9067 8.94976L10.6685 13.188L9.09758 11.6171C8.75318 11.2727 8.19792 11.2727 7.85352 11.6171C7.50911 11.9615 7.50911 12.5168 7.85352 12.8612L10.0464 15.0541C10.2186 15.2263 10.4436 15.3106 10.6685 15.3106C10.8934 15.3106 11.1183 15.2263 11.2905 15.0541L16.1473 10.1938C16.4917 9.84942 16.4917 9.29416 16.1473 8.94976C15.8029 8.60887 15.2476 8.60887 14.9067 8.94976Z" fill="#F74A5E"/>
</svg>
