<svg width="20" height="20" viewBox="0 0 20 20" fill="none" xmlns="http://www.w3.org/2000/svg">
<path d="M7.68271 17.9543C7.56431 17.9049 7.46592 17.818 7.40307 17.7073C7.34021 17.5966 7.31646 17.4684 7.33558 17.3429L8.38855 10.5715H5.59412C5.50553 10.5739 5.41757 10.5561 5.33704 10.5196C5.25651 10.483 5.18555 10.4287 5.12964 10.3608C5.07374 10.2929 5.03437 10.2132 5.01459 10.1278C4.99481 10.0425 4.99514 9.95385 5.01556 9.86868L6.75123 2.4402C6.78177 2.31235 6.85598 2.19881 6.96135 2.11867C7.06673 2.03853 7.19684 1.99669 7.32979 2.0002H13.1154C13.2018 1.99991 13.2872 2.01875 13.3653 2.05534C13.4434 2.09193 13.5122 2.14533 13.5666 2.21163C13.6219 2.27868 13.661 2.35722 13.681 2.44135C13.7011 2.52548 13.7015 2.61301 13.6824 2.69734L12.6814 7.143H15.4296C15.538 7.14278 15.6443 7.17267 15.7364 7.22925C15.8285 7.28583 15.9026 7.36682 15.9503 7.46299C15.9918 7.5553 16.0077 7.65681 15.9965 7.75718C15.9854 7.85756 15.9474 7.95321 15.8867 8.03441L8.36541 17.7486C8.31458 17.823 8.24671 17.8845 8.1673 17.9282C8.08789 17.9719 7.99917 17.9965 7.90835 18C7.83093 17.9986 7.75444 17.9831 7.68271 17.9543Z" fill="white"/>
</svg>
