<svg width="20" height="20" viewBox="0 0 20 20" fill="none" xmlns="http://www.w3.org/2000/svg">
<path d="M10.601 1.97578C10.601 1.81641 10.5377 1.66357 10.425 1.55088C10.3123 1.43819 10.1595 1.37488 10.0001 1.37488C9.84075 1.37488 9.68791 1.43819 9.57522 1.55088C9.46253 1.66357 9.39922 1.81641 9.39922 1.97578V4.37941C9.39922 4.53878 9.46253 4.69162 9.57522 4.80432C9.68791 4.91701 9.84075 4.98032 10.0001 4.98032C10.1595 4.98032 10.3123 4.91701 10.425 4.80432C10.5377 4.69162 10.601 4.53878 10.601 4.37941V1.97578ZM5.61751 2.35235C5.5036 2.24621 5.35294 2.18842 5.19726 2.19117C5.04158 2.19392 4.89305 2.25698 4.78296 2.36708C4.67286 2.47717 4.60979 2.62571 4.60705 2.78138C4.6043 2.93706 4.66209 3.08772 4.76823 3.20163L6.37065 4.80405C6.48456 4.91019 6.63522 4.96798 6.7909 4.96523C6.94658 4.96249 7.09511 4.89942 7.2052 4.78933C7.3153 4.67923 7.37837 4.5307 7.38111 4.37502C7.38386 4.21935 7.32607 4.06868 7.21993 3.95477L5.61751 2.35235ZM15.232 2.35235C15.1193 2.23982 14.9666 2.17662 14.8074 2.17662C14.6481 2.17662 14.4954 2.23982 14.3827 2.35235L12.7803 3.95477C12.6742 4.06868 12.6164 4.21935 12.6191 4.37502C12.6219 4.5307 12.6849 4.67923 12.795 4.78933C12.9051 4.89942 13.0537 4.96249 13.2093 4.96523C13.365 4.96798 13.5157 4.91019 13.6296 4.80405L15.232 3.20163C15.3445 3.08896 15.4078 2.93623 15.4078 2.77699C15.4078 2.61775 15.3445 2.46502 15.232 2.35235ZM16.4098 8.38545V8.58575H3.59045V8.38545C3.59045 7.62991 3.59045 7.25254 3.82521 7.01779C4.05996 6.78304 4.43733 6.78304 5.19287 6.78304H14.8074C15.5629 6.78304 15.9403 6.78304 16.175 7.01779C16.4098 7.25254 16.4098 7.62991 16.4098 8.38545ZM13.3428 12.2537C13.2122 12.3843 13.1008 12.4957 13.0047 12.5958V12.5918H6.99559V12.5958C6.89945 12.4957 6.78728 12.3843 6.65828 12.2537L4.19136 9.78757H15.8089L13.3428 12.2537Z" fill="white"/>
<path fill-rule="evenodd" clip-rule="evenodd" d="M7.59661 16.3975V14.5203C7.59661 14.2174 7.59661 13.9851 7.58459 13.7936H12.4159C12.4039 13.9859 12.4039 14.2182 12.4039 14.5203V16.3975C12.4039 17.153 12.4039 17.5304 12.1691 17.7652C11.9344 17.9999 11.557 17.9999 10.8014 17.9999H9.19903C8.44349 17.9999 8.06612 17.9999 7.83137 17.7652C7.59661 17.5304 7.59661 17.153 7.59661 16.3975ZM10.0002 14.9954C10.1596 14.9954 10.3125 15.0587 10.4251 15.1714C10.5378 15.2841 10.6011 15.4369 10.6011 15.5963V16.3975C10.6011 16.5569 10.5378 16.7097 10.4251 16.8224C10.3125 16.9351 10.1596 16.9984 10.0002 16.9984C9.84087 16.9984 9.68803 16.9351 9.57533 16.8224C9.46264 16.7097 9.39933 16.5569 9.39933 16.3975V15.5963C9.39933 15.4369 9.46264 15.2841 9.57533 15.1714C9.68803 15.0587 9.84087 14.9954 10.0002 14.9954Z" fill="white"/>
</svg>
