<svg width="54" height="78" viewBox="0 0 54 78" fill="none" xmlns="http://www.w3.org/2000/svg">
<path d="M27.8355 23.4648C27.471 23.4648 27.061 23.419 26.6965 23.419C11.9816 23.419 0 35.4487 0 50.2228C0 64.997 11.9816 77.0267 26.6965 77.0267C27.061 77.0267 27.471 77.0267 27.8355 76.9809C42.0493 76.3863 53.3931 64.5853 53.3931 50.1771C53.3931 35.8604 42.0493 24.0594 27.8355 23.4648ZM27.8355 76.5693C27.471 76.5693 27.061 76.615 26.6965 76.615C21.6397 76.615 16.9473 75.197 12.9383 72.6813C12.9383 72.6813 12.8927 72.6813 12.8927 72.6356C5.42131 67.9701 0.455572 59.6911 0.455572 50.2228C0.455572 35.6774 12.2549 23.8764 26.6965 23.8764C27.061 23.8764 27.471 23.8764 27.8355 23.9222C41.776 24.5168 52.9375 36.0891 52.9375 50.2686C52.9375 64.4023 41.776 75.9746 27.8355 76.5693Z" fill="white"/>
<path d="M48.7007 50.2686C48.7007 62.0696 39.4526 71.7208 27.8355 72.3154C27.471 72.3154 27.061 72.3612 26.6965 72.3612C23.9175 72.3612 21.2297 71.8123 18.7696 70.8975L21.0474 68.2903C22.8242 68.8392 24.7376 69.1594 26.6965 69.1594C27.061 69.1594 27.471 69.1593 27.8355 69.1136C37.6758 68.519 45.5117 60.2857 45.5117 50.2686C45.5117 43.7735 42.2315 38.0102 37.2202 34.6254L39.0881 32.0182C44.8739 35.9976 48.7007 42.6757 48.7007 50.2686Z" fill="white"/>
<path d="M38.1769 28.176L38.7692 27.2155L37.9492 28.0388C34.8968 26.4837 31.48 25.5231 27.881 25.3859C27.5166 25.3859 27.1065 25.3401 26.7421 25.3401C13.0749 25.3401 1.95895 36.5008 1.95895 50.2229C1.95895 59.1422 6.65135 66.9181 13.6216 71.3549L12.9382 72.6356L12.9838 72.6814L14.0772 71.6751C17.7673 73.8706 22.0952 75.1513 26.6965 75.1513C27.061 75.1513 27.471 75.1513 27.8355 75.1056C41.0015 74.511 51.4797 63.579 51.4797 50.2229C51.4797 40.6631 46.1039 32.3384 38.1769 28.176ZM13.8038 70.989C6.92469 66.6894 2.32341 59.005 2.32341 50.2686C2.32341 36.7752 13.2571 25.8433 26.651 25.8433C27.0154 25.8433 27.4254 25.8433 27.7899 25.889C31.2523 26.0263 34.5779 26.9411 37.5392 28.4505L35.7624 30.1886L33.3023 32.6129L27.7899 38.1017L13.4849 52.3269L23.7353 53.3332L24.7831 53.4247L16.7651 66.2777L15.0794 68.9764L13.8038 70.989ZM27.8355 74.6482C27.471 74.6482 27.061 74.6939 26.6965 74.6939C22.2319 74.6939 18.0407 73.4589 14.3961 71.3549L16.2184 69.7082L18.724 67.3755L27.7899 59.0507L39.5437 48.256L27.7899 47.6614L26.8332 47.6157L27.7899 45.9233L35.1246 33.3904L36.7191 30.6003L37.9036 28.5877C45.6939 32.6586 50.9785 40.8461 50.9785 50.2686C51.0241 63.3503 40.7282 74.0536 27.8355 74.6482Z" fill="white"/>
<path d="M33.1201 29.1366L30.8422 31.8352C29.8855 31.6065 28.8833 31.4693 27.881 31.4236C27.5166 31.4236 27.1065 31.3778 26.7421 31.3778C16.355 31.3778 7.92695 39.8398 7.92695 50.2686C7.92695 56.3521 10.7971 61.7951 15.2617 65.2257L13.3938 67.8329C8.10918 63.8077 4.73795 57.4041 4.73795 50.2686C4.73795 38.1017 14.6239 28.176 26.7421 28.176C27.1065 28.176 27.5166 28.176 27.881 28.2218C29.6577 28.2675 31.4345 28.5877 33.1201 29.1366Z" fill="white"/>
<path d="M28.0177 1.28073C28.0177 1.96683 27.471 2.56146 26.7421 2.56146C26.0587 2.56146 25.4665 2.01257 25.4665 1.28073C25.4665 0.594622 26.0587 0 26.7421 0C27.4254 0 28.0177 0.594622 28.0177 1.28073Z" fill="#383737"/>
<path d="M25.4665 4.71124C25.4665 5.39735 24.9198 5.99197 24.1909 5.99197C23.5075 5.99197 22.9153 5.44309 22.9153 4.71124C22.9153 4.02514 23.5075 3.43051 24.1909 3.43051C24.9198 3.43051 25.4665 3.9794 25.4665 4.71124Z" fill="#383737"/>
<path d="M27.9721 10.2001C29.356 10.2001 30.4778 9.07375 30.4778 7.68436C30.4778 6.29496 29.356 5.16864 27.9721 5.16864C26.5883 5.16864 25.4665 6.29496 25.4665 7.68436C25.4665 9.07375 26.5883 10.2001 27.9721 10.2001Z" fill="#383737"/>
<path d="M25.3754 10.7032C25.3754 11.3436 24.8742 11.8925 24.1909 11.8925C23.5531 11.8925 23.0064 11.3893 23.0064 10.7032C23.0064 10.0629 23.5075 9.51398 24.1909 9.51398C24.8742 9.55972 25.3754 10.0629 25.3754 10.7032Z" fill="#383737"/>
<path d="M28.6555 13.6306C28.6555 14.271 28.1088 14.8198 27.471 14.8198C26.8332 14.8198 26.2865 14.3167 26.2865 13.6306C26.2865 12.9902 26.8332 12.4413 27.471 12.4413C28.1543 12.4413 28.6555 12.9902 28.6555 13.6306Z" fill="#383737"/>
<path d="M26.6965 16.1921C26.6965 17.2898 25.8309 18.1589 24.7376 18.1589C23.6442 18.1589 22.7786 17.2898 22.7786 16.1921C22.7786 15.0943 23.6442 14.2252 24.7376 14.2252C25.8309 14.2252 26.6965 15.0943 26.6965 16.1921Z" fill="#383737"/>
<path d="M27.7444 20.9948C28.4488 20.9948 29.02 20.4214 29.02 19.7141C29.02 19.0068 28.4488 18.4333 27.7444 18.4333C27.0399 18.4333 26.4688 19.0068 26.4688 19.7141C26.4688 20.4214 27.0399 20.9948 27.7444 20.9948Z" fill="#383737"/>
<path d="M25.8765 21.7266C25.8765 22.4128 25.3298 23.0074 24.6009 23.0074C23.872 23.0074 23.3253 22.4585 23.3253 21.7266C23.3253 21.0405 23.872 20.4459 24.6009 20.4459C25.3298 20.4459 25.8765 21.0405 25.8765 21.7266Z" fill="#383737"/>
</svg>
