<svg width="79" height="52" viewBox="0 0 79 52" fill="none" xmlns="http://www.w3.org/2000/svg">
<path d="M50.6981 5.34071C50.6981 10.1238 50.6981 19.9155 50.6981 19.9155C50.6981 19.9155 49.968 24.3703 45.5875 24.6447C41.2021 24.924 31.1357 24.6447 31.1357 24.6447L28.4765 28.3203L25.4498 24.4242L22.7422 24.1987C22.7422 24.1987 18.879 23.8655 18.5647 18.7491C18.5454 18.4159 18.5647 5.66906 18.5647 5.66906C18.5647 5.66906 18.6663 0.160635 25.7109 0.0479183C32.7554 -0.0598979 45.3747 0.0479183 45.3747 0.0479183C45.3747 0.0479183 50.6981 0.552694 50.6981 5.34071Z" fill="#FAD16B" fill-opacity="0.8"/>
<path d="M61.9977 30.55C61.9977 30.55 61.8961 25.3111 54.8999 25.2033C47.8989 25.1004 35.3617 25.2033 35.3617 25.2033C35.3617 25.2033 30.0723 25.6836 30.0723 30.2364C30.0723 34.7892 30.0723 44.1055 30.0723 44.1055C30.0723 44.1055 30.8023 48.3446 35.1538 48.6092C37.7309 48.7612 42.2903 48.7367 45.5781 48.6877L48.3969 51.8045L50.853 48.5602L55.1562 48.3936L57.8493 48.1829C57.8493 48.1829 61.6882 47.8643 61.9977 42.9979C62.017 42.6794 61.9977 30.55 61.9977 30.55ZM59.3578 43.7918C58.7292 45.9628 54.8419 46.3794 54.8419 46.3794C54.8419 46.3794 38.3691 46.1197 35.7244 46.0119C33.0796 45.904 32.717 43.3655 32.717 43.3655C32.717 43.3655 32.4607 33.2013 32.717 30.4471C32.9733 27.6929 36.759 27.7468 36.759 27.7468C36.759 27.7468 52.3084 27.5361 55.5188 27.7468C58.7292 27.9624 59.3578 30.4471 59.3578 30.4471C59.3578 30.4471 59.9766 41.6208 59.3578 43.7918Z" fill="#F19D0F" fill-opacity="0.8"/>
<path d="M26.9107 9.01128C29.1058 9.01618 31.3009 9.02108 33.5008 9.02108C35.5943 9.02599 37.7604 9.16811 39.7959 8.58492C41.2899 8.15365 40.6566 5.7915 39.1529 6.22276C37.2624 6.76675 35.2075 6.57562 33.2687 6.57562C31.151 6.57072 29.0333 6.56582 26.9155 6.56582C25.3538 6.55601 25.3538 9.00638 26.9107 9.01128Z" fill="white"/>
<path d="M29.0129 13.7064C32.3201 13.4319 35.6417 13.3633 38.9537 13.5005C39.6064 13.5299 40.1624 12.9174 40.1624 12.2754C40.1624 11.5893 39.6064 11.0796 38.9537 11.0502C35.6369 10.913 32.3201 10.9816 29.0129 11.256C28.3602 11.3099 27.8042 11.7804 27.8042 12.4812C27.8042 13.1036 28.3602 13.7603 29.0129 13.7064Z" fill="white"/>
<path d="M27.3166 17.715C31.6391 17.8081 35.9664 17.7787 40.2888 17.6365C41.8409 17.5826 41.8457 15.1323 40.2888 15.1862C35.9664 15.3283 31.6391 15.3577 27.3166 15.2646C25.7597 15.2352 25.7597 17.6856 27.3166 17.715Z" fill="white"/>
<path d="M78.993 29.869C78.6594 35.4117 74.5787 35.7743 74.5787 35.7743L71.7115 36.0194L68.5108 40.2438L65.7016 36.2595C65.7016 36.2595 55.055 36.5585 50.4231 36.2595C45.7912 35.9606 45.0176 31.1284 45.0176 31.1284C45.0176 31.1284 45.0176 20.5184 45.0176 15.3285C45.0176 10.1435 50.6455 9.59461 50.6455 9.59461C50.6455 9.59461 63.9901 9.4721 71.4359 9.59461C78.8818 9.71713 78.993 15.6862 78.993 15.6862C78.993 15.6862 79.0124 29.5063 78.993 29.869Z" fill="#F97374" fill-opacity="0.8"/>
<path d="M66.7172 27.1637C65.5278 28.5947 64.2175 29.913 62.8057 31.1235C62.4044 31.4666 61.8242 31.6234 61.3407 31.3146C60.5719 30.8246 59.9434 30.1777 59.3148 29.521C58.6621 28.8398 58.0432 28.1145 57.5597 27.3009C56.6362 25.7327 56.1382 23.9341 55.6112 22.2042C55.3405 21.3269 54.9198 20.337 55.4082 19.4549C55.911 18.5384 57.1052 18.4453 58.0142 18.3816C59.0924 18.3081 59.808 18.6021 60.6058 19.3127C61.0409 19.695 61.4809 20.0871 61.916 20.4742C62.7863 19.3519 64.0338 18.4012 65.4166 18.3032C66.4706 18.2297 67.3312 18.8178 67.8437 19.7244C68.2644 20.4644 68.6367 21.3318 68.7769 22.1748C69.1105 24.1939 67.9308 25.7082 66.7172 27.1637Z" fill="white"/>
<path d="M11.2016 25.8992C11.7517 25.8992 12.1976 25.4472 12.1976 24.8897C12.1976 24.3321 11.7517 23.8801 11.2016 23.8801C10.6515 23.8801 10.2056 24.3321 10.2056 24.8897C10.2056 25.4472 10.6515 25.8992 11.2016 25.8992Z" fill="#F97374" fill-opacity="0.8"/>
<path d="M22.8002 25.4337C23.3503 25.4337 23.7962 24.9817 23.7962 24.4241C23.7962 23.8665 23.3503 23.4146 22.8002 23.4146C22.2501 23.4146 21.8042 23.8665 21.8042 24.4241C21.8042 24.9817 22.2501 25.4337 22.8002 25.4337Z" fill="#F97374" fill-opacity="0.8"/>
<path d="M17.1383 31.6577C15.9538 31.6577 14.7499 31.0304 13.5508 29.7807L13.8989 29.4376C15.1222 30.7118 16.3309 31.2852 17.4865 31.1431C19.2754 30.9225 20.3778 29.0554 20.3874 29.0358L20.8033 29.2857C20.7549 29.369 19.5703 31.3832 17.5445 31.6332C17.4139 31.6479 17.2737 31.6577 17.1383 31.6577Z" fill="#F97374" fill-opacity="0.8"/>
<path d="M40.0663 37.7248C40.6164 37.7248 41.0623 37.2728 41.0623 36.7152C41.0623 36.1577 40.6164 35.7057 40.0663 35.7057C39.5162 35.7057 39.0703 36.1577 39.0703 36.7152C39.0703 37.2728 39.5162 37.7248 40.0663 37.7248Z" fill="#F19D0F" fill-opacity="0.8"/>
<path d="M50.6982 37.2592C51.2482 37.2592 51.6942 36.8072 51.6942 36.2497C51.6942 35.6921 51.2482 35.2401 50.6982 35.2401C50.1481 35.2401 49.7021 35.6921 49.7021 36.2497C49.7021 36.8072 50.1481 37.2592 50.6982 37.2592Z" fill="#F19D0F" fill-opacity="0.8"/>
<path d="M45.9992 39.8811C44.8146 39.8811 43.6107 40.5084 42.4116 41.7581L42.7597 42.1011C43.983 40.8269 45.1917 40.2536 46.3473 40.3957C48.1362 40.6162 49.2386 42.4834 49.2483 42.503L49.6641 42.2531C49.6157 42.1697 48.4312 40.1555 46.4053 39.9056C46.2748 39.886 46.1394 39.8811 45.9992 39.8811Z" fill="#F19D0F" fill-opacity="0.8"/>
<path d="M28.5012 14.7011C28.5012 14.7011 15.0889 14.5884 7.60436 14.7011C0.1198 14.8138 0.00859553 20.3761 0.00859553 20.3761C0.00859553 20.3761 -0.0107444 33.2455 0.00859553 33.5836C0.342209 38.749 4.44711 39.0872 4.44711 39.0872L7.32876 39.3126L10.544 43.2479L13.3677 39.538C13.3677 39.538 24.0675 39.8174 28.7236 39.538C33.3797 39.2587 34.1581 34.7598 34.1581 34.7598C34.1581 34.7598 34.1581 24.875 34.1581 20.0429C34.1581 15.2108 28.5012 14.7011 28.5012 14.7011ZM31.3296 33.9757C31.3296 33.9757 30.9428 36.6711 28.1144 36.7838C25.2859 36.8965 7.66238 37.1759 7.66238 37.1759C7.66238 37.1759 3.50429 36.7299 2.83706 34.4266C2.17467 32.1232 2.83706 20.2634 2.83706 20.2634C2.83706 20.2634 3.50429 17.6268 6.94196 17.4014C10.3748 17.176 27.0071 17.4014 27.0071 17.4014C27.0071 17.4014 31.054 17.3426 31.3296 20.2634C31.6052 23.1892 31.3296 33.9757 31.3296 33.9757Z" fill="#F97374" fill-opacity="0.8"/>
</svg>
