<svg width="22" height="22" viewBox="0 0 22 22" fill="none" xmlns="http://www.w3.org/2000/svg">
<path d="M11.9166 2.75C9.72859 2.75 7.63017 3.61919 6.08299 5.16637C4.53582 6.71354 3.66663 8.81196 3.66663 11H0.916626L4.48246 14.5658L4.54663 14.6942L8.24996 11H5.49996C5.49996 7.4525 8.36913 4.58333 11.9166 4.58333C15.4641 4.58333 18.3333 7.4525 18.3333 11C18.3333 14.5475 15.4641 17.4167 11.9166 17.4167C10.1475 17.4167 8.54329 16.6925 7.38829 15.5283L6.08663 16.83C6.85059 17.5982 7.75907 18.2075 8.75968 18.6229C9.7603 19.0382 10.8332 19.2514 11.9166 19.25C14.1047 19.25 16.2031 18.3808 17.7503 16.8336C19.2974 15.2865 20.1666 13.188 20.1666 11C20.1666 8.81196 19.2974 6.71354 17.7503 5.16637C16.2031 3.61919 14.1047 2.75 11.9166 2.75ZM11 7.33333V11.9167L14.9233 14.245L15.5833 13.1358L12.375 11.2292V7.33333H11Z" fill="#F74A5E"/>
</svg>
