<svg width="20" height="20" viewBox="0 0 20 20" fill="none" xmlns="http://www.w3.org/2000/svg">
<g clip-path="url(#clip0_441_1062)">
<path d="M6.11122 9.16663L5.55566 10.8888H6.66678L6.11122 9.16663Z" fill="white"/>
<path d="M16.8334 1.66663H7.9445V4.4444H10.1667V5.55552H2.9445C2.00005 5.55552 1.27783 6.27774 1.27783 7.22218V13.3333C1.27783 14.2777 2.00005 15 2.9445 15H3.50005V17.8333L7.00005 15H10.7223V11.1111H16.8334C17.7778 11.1111 18.5001 10.3888 18.5001 9.4444V3.33329C18.5001 2.38885 17.7778 1.66663 16.8334 1.66663ZM7.27783 12.7222L7.00005 11.8333H5.27783L4.9445 12.7222H3.61117L5.4445 7.77774H6.77783L8.61117 12.7222H7.27783ZM15.7223 8.33329V9.4444C15.0001 9.4444 14.2223 9.22218 13.5556 8.88885C12.8889 9.22218 12.1112 9.38885 11.3334 9.4444L11.2778 8.33329C11.6667 8.33329 12.0556 8.27774 12.4445 8.16663C11.9445 7.66663 11.6112 7.05552 11.4445 6.38885H12.6112C12.7778 6.88885 13.1112 7.27774 13.5001 7.61107C14.1112 7.11107 14.5001 6.38885 14.5556 5.55552H11.2223V4.4444H12.8889V3.33329H14.0001V4.4444H15.8334L15.8889 4.99996C15.9445 6.16663 15.5001 7.33329 14.6667 8.16663C15.0556 8.27774 15.3889 8.33329 15.7223 8.33329Z" fill="white"/>
</g>
<defs>
<clipPath id="clip0_441_1062">
<rect width="20" height="20" fill="white"/>
</clipPath>
</defs>
</svg>
