<svg width="20" height="20" viewBox="0 0 20 20" fill="none" xmlns="http://www.w3.org/2000/svg">
<path d="M2 12V8H3.33333V12H2ZM4 13.3333V6.66667H5.33333V13.3333H4ZM16.6667 12V8H18V12H16.6667ZM14.6667 13.3333V6.66667H16V13.3333H14.6667ZM7.33333 16C6.96667 16 6.65267 15.8693 6.39133 15.608C6.13 15.3467 5.99956 15.0329 6 14.6667V5.33333C6 4.96667 6.13067 4.65267 6.392 4.39133C6.65333 4.13 6.96711 3.99956 7.33333 4H12.6667C13.0333 4 13.3473 4.13067 13.6087 4.392C13.87 4.65333 14.0004 4.96711 14 5.33333V14.6667C14 15.0333 13.8693 15.3473 13.608 15.6087C13.3467 15.87 13.0329 16.0004 12.6667 16H7.33333Z" fill="white"/>
</svg>
