<svg width="24" height="24" viewBox="0 0 24 24" fill="none" xmlns="http://www.w3.org/2000/svg">
<path d="M18 18.6667C18 19.0334 17.8786 19.3667 17.6898 19.6167C17.5011 19.85 17.2314 20 16.9213 20H7.07865C6.48539 20 6 19.4 6 18.6667C6 18.3 6.12135 17.9667 6.31011 17.7167C6.49887 17.4834 6.76854 17.3334 7.07865 17.3334H16.9213C17.5146 17.3334 18 17.9334 18 18.6667Z" fill="url(#paint0_linear_334_222)"/>
<path d="M19.3332 10.0539L16.7524 17.3334H7.26138L4.66663 10.1133C5.06902 9.97964 5.41591 9.68252 5.62405 9.29627C6.66473 10.2025 8.38532 10.1728 9.78676 9.13285C10.6609 8.49404 11.2437 7.58782 11.4518 6.66675C11.6322 6.74103 11.8404 6.7856 12.0485 6.7856C12.2289 6.7856 12.3954 6.75588 12.548 6.71132C12.77 7.61753 13.3389 8.49404 14.1992 9.13285C15.6562 10.2173 17.46 10.2025 18.4868 9.19227C18.6533 9.57853 18.9586 9.89051 19.3332 10.0539Z" fill="url(#paint1_linear_334_222)"/>
<path d="M5.99999 8.66674C5.99999 9.03341 5.89999 9.36674 5.74999 9.65007C5.49999 10.0834 5.08332 10.4167 4.59999 10.5667C4.41666 10.6334 4.19999 10.6667 3.99999 10.6667C2.9 10.6667 2 9.76674 2 8.66674C2 7.56675 2.9 6.66675 3.99999 6.66675C4.24999 6.66675 4.48333 6.71675 4.71666 6.80008C5.46666 7.08341 5.99999 7.81674 5.99999 8.66674Z" fill="url(#paint2_linear_334_222)"/>
<path d="M13.9999 5.99999C13.9999 6.89999 13.419 7.64999 12.6057 7.91665C12.4232 7.98332 12.224 7.99999 12.0082 7.99999C11.7593 7.99999 11.5269 7.94999 11.2945 7.86665C10.5477 7.58332 9.99994 6.84999 9.99994 5.99999C9.99994 5.53333 10.1659 5.1 10.4315 4.76666C10.7966 4.3 11.3609 4 11.9916 4C12.6057 4 13.1369 4.26667 13.502 4.7C13.8174 5.05 13.9999 5.5 13.9999 5.99999Z" fill="url(#paint3_linear_334_222)"/>
<path d="M21.9999 8.67504C21.9999 9.77047 21.0999 10.6667 19.9999 10.6667C19.7166 10.6667 19.4499 10.6169 19.2166 10.5008C18.7666 10.3182 18.3999 9.95304 18.1999 9.52151C18.0666 9.25595 17.9999 8.9738 17.9999 8.65844C17.9999 7.87836 18.4499 7.21446 19.0999 6.88252C19.3666 6.74974 19.6833 6.66675 19.9999 6.66675C21.0999 6.68335 21.9999 7.57961 21.9999 8.67504Z" fill="url(#paint4_linear_334_222)"/>
<path d="M11.9999 14.6666C13.1045 14.6666 13.9999 13.7712 13.9999 12.6666C13.9999 11.5621 13.1045 10.6666 11.9999 10.6666C10.8954 10.6666 9.99994 11.5621 9.99994 12.6666C9.99994 13.7712 10.8954 14.6666 11.9999 14.6666Z" fill="url(#paint5_linear_334_222)"/>
<defs>
<linearGradient id="paint0_linear_334_222" x1="12" y1="17.3334" x2="12" y2="20" gradientUnits="userSpaceOnUse">
<stop stop-color="#F57251"/>
<stop offset="1" stop-color="#F74540"/>
</linearGradient>
<linearGradient id="paint1_linear_334_222" x1="11.9999" y1="6.66675" x2="11.9999" y2="17.3334" gradientUnits="userSpaceOnUse">
<stop stop-color="#EFBA09"/>
<stop offset="1" stop-color="#F69C08"/>
</linearGradient>
<linearGradient id="paint2_linear_334_222" x1="3.99999" y1="6.66675" x2="3.99999" y2="10.6667" gradientUnits="userSpaceOnUse">
<stop stop-color="#EBB711"/>
<stop offset="1" stop-color="#F79A08"/>
</linearGradient>
<linearGradient id="paint3_linear_334_222" x1="11.9999" y1="4" x2="11.9999" y2="7.99999" gradientUnits="userSpaceOnUse">
<stop stop-color="#EBB711"/>
<stop offset="1" stop-color="#F79A08"/>
</linearGradient>
<linearGradient id="paint4_linear_334_222" x1="19.9999" y1="6.66675" x2="19.9999" y2="10.6667" gradientUnits="userSpaceOnUse">
<stop stop-color="#EBB711"/>
<stop offset="1" stop-color="#F79A08"/>
</linearGradient>
<linearGradient id="paint5_linear_334_222" x1="11.9999" y1="10.6666" x2="11.9999" y2="14.6666" gradientUnits="userSpaceOnUse">
<stop stop-color="#F5EDF2"/>
<stop offset="1" stop-color="#CDCBCD"/>
</linearGradient>
</defs>
</svg>
