<svg width="20" height="20" viewBox="0 0 20 20" fill="none" xmlns="http://www.w3.org/2000/svg">
<path d="M12.2705 6.79667C13.5621 6.03167 14.2088 5.64917 14.683 5.92084C15.158 6.19167 15.1463 6.9375 15.1238 8.42917L15.118 8.815C15.1113 9.23917 15.108 9.45084 15.1871 9.63667C15.2663 9.82334 15.418 9.9625 15.723 10.2417L15.9996 10.4958C17.0713 11.4775 17.608 11.9675 17.4813 12.5192C17.3563 13.07 16.6521 13.3167 15.2446 13.8092L14.8805 13.9367C14.4805 14.0775 14.2805 14.1475 14.1271 14.2875C13.9738 14.4283 13.8846 14.6233 13.7055 15.0125L13.5421 15.3675C12.9121 16.7392 12.5971 17.4258 12.0455 17.495C11.493 17.5633 11.0696 16.97 10.2221 15.7833L10.003 15.4767C9.76214 15.1392 9.64214 14.9708 9.46797 14.8708C9.29464 14.7717 9.08714 14.7525 8.6713 14.715L8.2938 14.68C6.83297 14.5467 6.10214 14.48 5.88714 13.9717C5.6713 13.4633 6.11297 12.8492 6.99714 11.6233L7.2263 11.3058C7.47714 10.9575 7.60297 10.7833 7.6488 10.5808C7.69464 10.3792 7.6563 10.1725 7.5788 9.75917L7.50797 9.38334C7.23464 7.92834 7.09797 7.20167 7.51714 6.81834C7.9363 6.435 8.63297 6.64917 10.0263 7.0775L10.3871 7.18917C10.783 7.31084 10.9813 7.37167 11.183 7.34584C11.3855 7.32084 11.5688 7.2125 11.9363 6.995L12.2696 6.79667H12.2705Z" fill="white"/>
<path fill-rule="evenodd" clip-rule="evenodd" d="M7.47478 1.64165C7.59196 1.5246 7.75082 1.45886 7.91644 1.45886C8.08207 1.45886 8.24092 1.5246 8.35811 1.64165L10.0248 3.30831C10.1352 3.42679 10.1953 3.5835 10.1924 3.74541C10.1896 3.90733 10.124 4.06182 10.0095 4.17633C9.89495 4.29084 9.74046 4.35643 9.57854 4.35929C9.41663 4.36215 9.25992 4.30205 9.14144 4.19165L7.47478 2.52498C7.35773 2.40779 7.29199 2.24894 7.29199 2.08331C7.29199 1.91769 7.35773 1.75883 7.47478 1.64165ZM2.89144 2.89165C3.00863 2.7746 3.16748 2.70886 3.33311 2.70886C3.49873 2.70886 3.65759 2.7746 3.77478 2.89165L5.85811 4.97498C5.96851 5.09346 6.02861 5.25016 6.02575 5.41208C6.0229 5.574 5.9573 5.72849 5.84279 5.843C5.72828 5.95751 5.5738 6.0231 5.41188 6.02596C5.24996 6.02881 5.09325 5.96871 4.97478 5.85831L2.89144 3.77498C2.7744 3.65779 2.70866 3.49894 2.70866 3.33331C2.70866 3.16769 2.7744 3.00883 2.89144 2.89165ZM10.3914 4.55831C10.5086 4.44127 10.6675 4.37553 10.8331 4.37553C10.9987 4.37553 11.1576 4.44127 11.2748 4.55831L11.6914 4.97498C11.8018 5.09346 11.8619 5.25016 11.8591 5.41208C11.8562 5.574 11.7906 5.72849 11.6761 5.843C11.5616 5.95751 11.4071 6.0231 11.2452 6.02596C11.0833 6.02881 10.9266 5.96871 10.8081 5.85831L10.3914 5.44165C10.2744 5.32446 10.2087 5.1656 10.2087 4.99998C10.2087 4.83435 10.2744 4.6755 10.3914 4.55831ZM1.22478 6.22498C1.34196 6.10794 1.50082 6.0422 1.66644 6.0422C1.83207 6.0422 1.99092 6.10794 2.10811 6.22498L2.52478 6.64165C2.63518 6.76012 2.69528 6.91683 2.69242 7.07875C2.68956 7.24066 2.62397 7.39515 2.50946 7.50966C2.39495 7.62417 2.24046 7.68977 2.07854 7.69263C1.91663 7.69548 1.75992 7.63538 1.64144 7.52498L1.22478 7.10831C1.10773 6.99112 1.04199 6.83227 1.04199 6.66665C1.04199 6.50102 1.10773 6.34217 1.22478 6.22498ZM3.30811 8.30831C3.4253 8.19127 3.58415 8.12553 3.74978 8.12553C3.9154 8.12553 4.07425 8.19127 4.19144 8.30831L5.44144 9.55831C5.50285 9.61553 5.5521 9.68453 5.58626 9.7612C5.62042 9.83786 5.63879 9.92062 5.64027 10.0045C5.64175 10.0885 5.62631 10.1718 5.59488 10.2496C5.56344 10.3275 5.51666 10.3982 5.45731 10.4575C5.39796 10.5169 5.32726 10.5636 5.24944 10.5951C5.17162 10.6265 5.08826 10.642 5.00434 10.6405C4.92042 10.639 4.83766 10.6206 4.76099 10.5865C4.68433 10.5523 4.61533 10.5031 4.55811 10.4416L3.30811 9.19165C3.19107 9.07446 3.12533 8.9156 3.12533 8.74998C3.12533 8.58435 3.19107 8.4255 3.30811 8.30831Z" fill="white"/>
</svg>
