<svg width="22" height="22" viewBox="0 0 22 22" fill="none" xmlns="http://www.w3.org/2000/svg">
<path d="M8.25004 3.66665V2.74998C8.25004 2.50686 8.34662 2.27371 8.51853 2.1018C8.69043 1.92989 8.92359 1.83331 9.16671 1.83331H12.8334C13.0765 1.83331 13.3096 1.92989 13.4816 2.1018C13.6535 2.27371 13.75 2.50686 13.75 2.74998V3.66665H16.5C16.7432 3.66665 16.9763 3.76322 17.1482 3.93513C17.3201 4.10704 17.4167 4.3402 17.4167 4.58331V19.25C17.4167 19.4931 17.3201 19.7263 17.1482 19.8982C16.9763 20.0701 16.7432 20.1666 16.5 20.1666H5.50004C5.25693 20.1666 5.02377 20.0701 4.85186 19.8982C4.67995 19.7263 4.58337 19.4931 4.58337 19.25V4.58331C4.58337 4.3402 4.67995 4.10704 4.85186 3.93513C5.02377 3.76322 5.25693 3.66665 5.50004 3.66665H8.25004ZM11.9167 11V6.41665L7.33337 12.8333H10.0834V17.4166L14.6667 11H11.9167Z" fill="#6D6D6D"/>
</svg>
