<svg width="20" height="20" viewBox="0 0 20 20" fill="none" xmlns="http://www.w3.org/2000/svg">
<path d="M17.4999 15.8334V16.6667H2.49993V15.8334L4.1666 14.1667V9.16669C4.1666 6.58335 5.85827 4.30835 8.33327 3.57502V3.33335C8.33327 2.89133 8.50886 2.4674 8.82142 2.15484C9.13398 1.84228 9.55791 1.66669 9.99993 1.66669C10.442 1.66669 10.8659 1.84228 11.1784 2.15484C11.491 2.4674 11.6666 2.89133 11.6666 3.33335V3.57502C14.1416 4.30835 15.8333 6.58335 15.8333 9.16669V14.1667L17.4999 15.8334ZM11.6666 17.5C11.6666 17.942 11.491 18.366 11.1784 18.6785C10.8659 18.9911 10.442 19.1667 9.99993 19.1667C9.55791 19.1667 9.13398 18.9911 8.82142 18.6785C8.50886 18.366 8.33327 17.942 8.33327 17.5M16.4583 2.65835L15.2749 3.84169C15.9797 4.53787 16.5393 5.36704 16.9213 6.28112C17.3032 7.19521 17.4999 8.17602 17.4999 9.16669H19.1666C19.1666 6.72502 18.1999 4.37502 16.4583 2.65835ZM0.833268 9.16669H2.49993C2.49993 7.16669 3.29993 5.25002 4.72493 3.84169L3.5416 2.65835C2.6815 3.50966 1.99916 4.52341 1.53422 5.6407C1.06928 6.75798 0.831015 7.95653 0.833268 9.16669Z" fill="white"/>
</svg>
