<svg width="20" height="20" viewBox="0 0 20 20" fill="none" xmlns="http://www.w3.org/2000/svg">
<path d="M2.67052 5.76747C2.21114 4.33997 2.69489 2.7156 3.94114 1.83372C5.18739 0.951845 6.80864 1.09747 7.89114 2.08122C8.22989 2.39185 8.19364 2.95622 7.82489 3.21685L3.69927 6.12934C3.32427 6.38935 2.81552 6.21184 2.67052 5.76747ZM9.99989 6.87497C10.1657 6.87497 10.3246 6.94082 10.4418 7.05803C10.559 7.17524 10.6249 7.33421 10.6249 7.49997V10.2906L12.2218 11.355C12.3597 11.447 12.4554 11.59 12.4879 11.7526C12.5203 11.9151 12.4869 12.0839 12.3949 12.2218C12.3029 12.3598 12.1599 12.4555 11.9973 12.4879C11.8347 12.5204 11.6659 12.487 11.528 12.395L9.65302 11.145C9.56593 11.0869 9.49483 11.0079 9.44623 10.9152C9.39764 10.8224 9.37311 10.719 9.37489 10.6143V7.49997C9.37489 7.33421 9.44074 7.17524 9.55795 7.05803C9.67516 6.94082 9.83413 6.87497 9.99989 6.87497Z" fill="white"/>
<path d="M14.5044 15.3625C15.247 14.7472 15.8445 13.9755 16.2543 13.1025C16.6641 12.2296 16.8761 11.2768 16.875 10.3125C16.875 6.6881 13.9369 3.74997 10.3125 3.74997C6.68813 3.74997 3.75001 6.6881 3.75001 10.3125C3.74888 11.207 3.93116 12.0922 4.28558 12.9135C4.64 13.7348 5.15904 14.4747 5.81063 15.0875L4.19438 16.4856C3.32313 17.2425 3.81876 18.75 4.94063 18.75H15.0563C16.1788 18.75 16.6806 17.2425 15.8025 16.4856L14.5044 15.3625ZM10.3125 15C9.0693 15 7.87702 14.5061 6.99794 13.627C6.11887 12.748 5.62501 11.5557 5.62501 10.3125C5.62501 9.06927 6.11887 7.87698 6.99794 6.99791C7.87702 6.11883 9.0693 5.62497 10.3125 5.62497C11.5557 5.62497 12.748 6.11883 13.6271 6.99791C14.5061 7.87698 15 9.06927 15 10.3125C15 11.5557 14.5061 12.748 13.6271 13.627C12.748 14.5061 11.5557 15 10.3125 15ZM16.6838 1.83372C17.93 2.71497 18.4138 4.33997 17.9544 5.76747C17.8094 6.21122 17.3006 6.38935 16.9256 6.12934L12.8006 3.21685C12.4313 2.95685 12.3944 2.39185 12.7338 2.08122C13.8163 1.09747 15.4375 0.951845 16.6838 1.83372Z" fill="white"/>
</svg>
