<svg width="20" height="20" viewBox="0 0 20 20" fill="none" xmlns="http://www.w3.org/2000/svg">
<path d="M12.271 6.79667C13.5626 6.03167 14.2093 5.64917 14.6835 5.92084C15.1585 6.19167 15.1468 6.9375 15.1243 8.42917L15.1185 8.815C15.1118 9.23917 15.1085 9.45084 15.1876 9.63667C15.2668 9.82334 15.4185 9.9625 15.7235 10.2417L16.0001 10.4958C17.0718 11.4775 17.6085 11.9675 17.4818 12.5192C17.3568 13.07 16.6526 13.3167 15.2451 13.8092L14.881 13.9367C14.481 14.0775 14.281 14.1475 14.1276 14.2875C13.9743 14.4283 13.8851 14.6233 13.706 15.0125L13.5426 15.3675C12.9126 16.7392 12.5976 17.4258 12.046 17.495C11.4935 17.5633 11.0701 16.97 10.2226 15.7833L10.0035 15.4767C9.76262 15.1392 9.64263 14.9708 9.46846 14.8708C9.29513 14.7717 9.08763 14.7525 8.67179 14.715L8.29429 14.68C6.83346 14.5467 6.10262 14.48 5.88762 13.9717C5.67179 13.4633 6.11346 12.8492 6.99763 11.6233L7.22679 11.3058C7.47762 10.9575 7.60346 10.7833 7.64929 10.5808C7.69512 10.3792 7.65679 10.1725 7.57929 9.75917L7.50846 9.38334C7.23513 7.92834 7.09846 7.20167 7.51762 6.81834C7.93679 6.435 8.63346 6.64917 10.0268 7.0775L10.3876 7.18917C10.7835 7.31084 10.9818 7.37167 11.1835 7.34584C11.386 7.32084 11.5693 7.2125 11.9368 6.995L12.2701 6.79667H12.271Z" fill="white"/>
<path fill-rule="evenodd" clip-rule="evenodd" d="M7.47502 1.64165C7.59221 1.5246 7.75106 1.45886 7.91669 1.45886C8.08231 1.45886 8.24116 1.5246 8.35835 1.64165L10.025 3.30831C10.1354 3.42679 10.1955 3.5835 10.1927 3.74541C10.1898 3.90733 10.1242 4.06182 10.0097 4.17633C9.89519 4.29084 9.74071 4.35643 9.57879 4.35929C9.41687 4.36215 9.26017 4.30205 9.14169 4.19165L7.47502 2.52498C7.35798 2.40779 7.29224 2.24894 7.29224 2.08331C7.29224 1.91769 7.35798 1.75883 7.47502 1.64165ZM2.89169 2.89165C3.00887 2.7746 3.16773 2.70886 3.33335 2.70886C3.49898 2.70886 3.65783 2.7746 3.77502 2.89165L5.85835 4.97498C5.96875 5.09346 6.02886 5.25016 6.026 5.41208C6.02314 5.574 5.95755 5.72849 5.84304 5.843C5.72853 5.95751 5.57404 6.0231 5.41212 6.02596C5.2502 6.02881 5.0935 5.96871 4.97502 5.85831L2.89169 3.77498C2.77464 3.65779 2.7089 3.49894 2.7089 3.33331C2.7089 3.16769 2.77464 3.00883 2.89169 2.89165ZM10.3917 4.55831C10.5089 4.44127 10.6677 4.37553 10.8334 4.37553C10.999 4.37553 11.1578 4.44127 11.275 4.55831L11.6917 4.97498C11.8021 5.09346 11.8622 5.25016 11.8593 5.41208C11.8565 5.574 11.7909 5.72849 11.6764 5.843C11.5619 5.95751 11.4074 6.0231 11.2455 6.02596C11.0835 6.02881 10.9268 5.96871 10.8084 5.85831L10.3917 5.44165C10.2746 5.32446 10.2089 5.1656 10.2089 4.99998C10.2089 4.83435 10.2746 4.6755 10.3917 4.55831ZM1.22502 6.22498C1.34221 6.10794 1.50106 6.0422 1.66669 6.0422C1.83231 6.0422 1.99117 6.10794 2.10835 6.22498L2.52502 6.64165C2.63542 6.76012 2.69552 6.91683 2.69267 7.07875C2.68981 7.24066 2.62422 7.39515 2.5097 7.50966C2.39519 7.62417 2.24071 7.68977 2.07879 7.69263C1.91687 7.69548 1.76017 7.63538 1.64169 7.52498L1.22502 7.10831C1.10798 6.99112 1.04224 6.83227 1.04224 6.66665C1.04224 6.50102 1.10798 6.34217 1.22502 6.22498ZM3.30835 8.30831C3.42554 8.19127 3.58439 8.12553 3.75002 8.12553C3.91565 8.12553 4.0745 8.19127 4.19169 8.30831L5.44169 9.55831C5.50309 9.61553 5.55234 9.68453 5.5865 9.7612C5.62066 9.83786 5.63903 9.92062 5.64051 10.0045C5.64199 10.0885 5.62656 10.1718 5.59512 10.2496C5.56369 10.3275 5.5169 10.3982 5.45755 10.4575C5.3982 10.5169 5.32751 10.5636 5.24968 10.5951C5.17186 10.6265 5.0885 10.642 5.00458 10.6405C4.92067 10.639 4.8379 10.6206 4.76124 10.5865C4.68457 10.5523 4.61557 10.5031 4.55835 10.4416L3.30835 9.19165C3.19131 9.07446 3.12557 8.9156 3.12557 8.74998C3.12557 8.58435 3.19131 8.4255 3.30835 8.30831Z" fill="white"/>
</svg>
