<svg width="20" height="20" viewBox="0 0 20 20" fill="none" xmlns="http://www.w3.org/2000/svg">
<g clip-path="url(#clip0_187_2865)">
<path d="M11.05 2.74998C11.1804 2.65668 11.333 2.59923 11.4926 2.58336C11.6521 2.56749 11.8131 2.59376 11.9593 2.65954C12.1056 2.72533 12.232 2.82833 12.326 2.95825C12.42 3.08818 12.4782 3.24049 12.495 3.39998L12.5 3.49498V16.505C12.5 16.6653 12.458 16.8229 12.3781 16.962C12.2982 17.101 12.1832 17.2167 12.0447 17.2974C11.9061 17.3781 11.7488 17.421 11.5884 17.4219C11.428 17.4228 11.2703 17.3816 11.1308 17.3025L11.0508 17.2508L5.56663 13.3333H3.33329C2.91281 13.3334 2.50782 13.1746 2.1995 12.8887C1.89118 12.6028 1.70233 12.2109 1.67079 11.7916L1.66663 11.6666V8.33331C1.66649 7.91283 1.8253 7.50784 2.11121 7.19952C2.39712 6.8912 2.789 6.70235 3.20829 6.67081L3.33329 6.66664H5.56663L11.05 2.74998ZM16.3891 5.65248C17.0014 6.19911 17.4911 6.86904 17.8262 7.6183C18.1612 8.36756 18.3341 9.17921 18.3333 9.99998C18.3341 10.8207 18.1612 11.6324 17.8262 12.3817C17.4911 13.1309 17.0014 13.8008 16.3891 14.3475C16.3078 14.4217 16.2126 14.479 16.1089 14.5162C16.0053 14.5534 15.8954 14.5696 15.7854 14.5641C15.6755 14.5585 15.5677 14.5312 15.4684 14.4838C15.3691 14.4363 15.2801 14.3697 15.2067 14.2877C15.1332 14.2056 15.0768 14.1099 15.0406 14.0059C15.0044 13.902 14.9891 13.7919 14.9957 13.682C15.0023 13.5721 15.0306 13.4646 15.0789 13.3657C15.1273 13.2668 15.1948 13.1785 15.2775 13.1058C15.7151 12.7155 16.0652 12.2369 16.3046 11.7016C16.544 11.1663 16.6674 10.5864 16.6666 9.99998C16.6666 8.76664 16.1316 7.65831 15.2775 6.89414C15.1948 6.82148 15.1273 6.73315 15.0789 6.63425C15.0306 6.53536 15.0023 6.42787 14.9957 6.31798C14.9891 6.20809 15.0044 6.09799 15.0406 5.99403C15.0768 5.89007 15.1332 5.79432 15.2067 5.7123C15.2801 5.63028 15.3691 5.56363 15.4684 5.51618C15.5677 5.46874 15.6755 5.44145 15.7854 5.43589C15.8954 5.43032 16.0053 5.4466 16.1089 5.48378C16.2126 5.52095 16.3078 5.57829 16.3891 5.65248ZM14.7225 7.51581C15.0722 7.82809 15.3519 8.21077 15.5433 8.63874C15.7348 9.06671 15.8336 9.53031 15.8333 9.99914C15.8339 10.4683 15.7352 10.9322 15.5437 11.3605C15.3523 11.7888 15.0724 12.1717 14.7225 12.4841C14.5644 12.6245 14.359 12.6996 14.1477 12.6941C13.9364 12.6887 13.7351 12.6032 13.5844 12.4549C13.4338 12.3066 13.3452 12.1066 13.3365 11.8955C13.3277 11.6843 13.3996 11.4777 13.5375 11.3175L13.6108 11.2425C13.9525 10.9358 14.1666 10.4933 14.1666 9.99998C14.1676 9.57324 14.004 9.16254 13.71 8.85331L13.6108 8.75748C13.5281 8.68481 13.4606 8.59648 13.4123 8.49759C13.3639 8.39869 13.3356 8.2912 13.329 8.18131C13.3224 8.07142 13.3377 7.96132 13.3739 7.85736C13.4101 7.7534 13.4666 7.65765 13.54 7.57563C13.6134 7.49362 13.7024 7.42696 13.8017 7.37952C13.9011 7.33207 14.0088 7.30478 14.1188 7.29922C14.2287 7.29366 14.3387 7.30994 14.4423 7.34711C14.5459 7.38429 14.6411 7.44162 14.7225 7.51581Z" fill="white"/>
</g>
<defs>
<clipPath id="clip0_187_2865">
<rect width="20" height="20" fill="white"/>
</clipPath>
</defs>
</svg>
