<svg width="20" height="20" viewBox="0 0 20 20" fill="none" xmlns="http://www.w3.org/2000/svg">
<path d="M8.33325 1.66663L6.33325 4.49996C6.99992 4.33329 7.66658 4.16663 8.33325 4.16663C8.99992 4.16663 9.66658 4.33329 10.3333 4.49996M15.8333 4.16663C14.9083 4.16663 14.1666 4.90829 14.1666 5.83329V11.4666C13.6333 11.9416 13.3333 12.625 13.3333 13.3333C13.3333 14.7166 14.4499 15.8333 15.8333 15.8333C17.2166 15.8333 18.3333 14.7166 18.3333 13.3333C18.3333 12.625 18.0333 11.9416 17.4999 11.475V5.83329C17.4999 4.90829 16.7583 4.16663 15.8333 4.16663ZM15.8333 4.99996C16.2916 4.99996 16.6666 5.37496 16.6666 5.83329V6.66663H14.9999V5.83329C14.9999 5.37496 15.3749 4.99996 15.8333 4.99996ZM4.58325 5.58329L1.08325 5.83329L2.58325 8.99996C2.66659 8.33329 2.91659 7.66663 3.24992 7.08329C3.66659 6.49996 4.08325 5.99996 4.58325 5.58329ZM8.33325 5.83329C5.99992 5.83329 4.16659 7.66663 4.16659 9.99996C4.16659 12.3333 5.99992 14.1666 8.33325 14.1666C10.6666 14.1666 12.4999 12.3333 12.4999 9.99996C12.4999 7.66663 10.6666 5.83329 8.33325 5.83329ZM2.66659 11L1.16659 14.1666L4.58325 14.5C4.16658 14.0833 3.66659 13.5 3.33325 12.9166C2.91659 12.3333 2.74992 11.6666 2.66659 11ZM6.33325 15.5L8.33325 18.3333L10.3333 15.5C9.66658 15.6666 8.99992 15.8333 8.33325 15.8333C7.58325 15.8333 6.91659 15.6666 6.33325 15.5Z" fill="white"/>
</svg>
