<svg width="23" height="22" viewBox="0 0 23 22" fill="none" xmlns="http://www.w3.org/2000/svg">
<path d="M20.7504 16.5209C20.5112 16.5209 20.3174 16.327 20.3174 16.0879C20.3174 15.8488 20.5112 15.655 20.7504 15.655H21.2722C21.0271 13.2519 19.0782 11.3456 16.6565 11.1666V11.6209C16.6565 11.86 16.4627 12.0539 16.2236 12.0539C15.9844 12.0539 15.7906 11.86 15.7906 11.6209V11.177C13.4047 11.4108 11.5042 13.3235 11.2892 15.7148H11.7566C11.9957 15.7148 12.1895 15.9086 12.1895 16.1477C12.1895 16.3869 11.9957 16.5807 11.7566 16.5807H11.2856C11.4847 19.0105 13.4233 20.955 15.8504 21.1636V20.6147C15.8504 20.3756 16.0443 20.1818 16.2834 20.1818C16.5225 20.1818 16.7164 20.3756 16.7164 20.6147V21.1636C19.1634 20.9533 21.1138 18.9785 21.2856 16.5209H20.7504ZM18.036 15.0273L16.5896 16.4738C16.5084 16.555 16.3983 16.6006 16.2834 16.6006C16.1686 16.6006 16.0585 16.555 15.9773 16.4738L13.4594 13.9559C13.2903 13.7868 13.2903 13.5127 13.4594 13.3436C13.6285 13.1745 13.9026 13.1745 14.0717 13.3436L16.2835 15.5553L17.4238 14.415C17.5929 14.2459 17.867 14.2459 18.0361 14.415C18.2051 14.584 18.2051 14.8582 18.036 15.0273Z" fill="#6D6D6D"/>
<path fill-rule="evenodd" clip-rule="evenodd" d="M5.77143 1.91667V2.83333H2.94286C2.6928 2.83333 2.45298 2.92991 2.27616 3.10182C2.09934 3.27373 2 3.50688 2 3.75V18.4167C2 18.6598 2.09934 18.8929 2.27616 19.0648C2.45298 19.2368 2.6928 19.3333 2.94286 19.3333H11.1884C10.6162 18.4142 10.2856 17.329 10.2856 16.1666C10.2856 13.2236 12.4045 10.7755 15.2 10.2646V3.75C15.2 3.50688 15.1007 3.27373 14.9238 3.10182C14.747 2.92991 14.5072 2.83333 14.2571 2.83333H11.4286V1.91667C11.4286 1.67355 11.3292 1.44039 11.1524 1.26849C10.9756 1.09658 10.7358 1 10.4857 1H6.71429C6.46422 1 6.22441 1.09658 6.04759 1.26849C5.87077 1.44039 5.77143 1.67355 5.77143 1.91667ZM9.54286 5.58333V10.1667H12.3714L7.65714 16.5833V12H4.82857L9.54286 5.58333Z" fill="#6D6D6D"/>
</svg>
