<svg width="20" height="20" viewBox="0 0 20 20" fill="none" xmlns="http://www.w3.org/2000/svg">
<g clip-path="url(#clip0_187_2478)">
<path fill-rule="evenodd" clip-rule="evenodd" d="M12.9457 2.34001L17.6599 7.05334C17.8147 7.20811 17.9375 7.39187 18.0213 7.59413C18.1051 7.79638 18.1483 8.01316 18.1483 8.23209C18.1483 8.45102 18.1051 8.6678 18.0213 8.87005C17.9375 9.07231 17.8147 9.25607 17.6599 9.41084L9.40988 17.6608C9.09734 17.9733 8.67349 18.1488 8.23155 18.1488C7.78961 18.1488 7.36576 17.9733 7.05322 17.6608L2.33905 12.9458C2.0266 12.6333 1.85107 12.2094 1.85107 11.7675C1.85107 11.3256 2.0266 10.9017 2.33905 10.5892L10.5891 2.33917C10.9016 2.02672 11.3254 1.8512 11.7674 1.8512C12.2093 1.8512 12.6332 2.02672 12.9457 2.33917V2.34001ZM17.6599 12.9467C17.8161 13.1029 17.9039 13.3149 17.9039 13.5358C17.9039 13.7568 17.8161 13.9687 17.6599 14.125L14.1249 17.66C13.9686 17.8164 13.7567 17.9043 13.5356 17.9043C13.3145 17.9044 13.1025 17.8167 12.9461 17.6604C12.7898 17.5042 12.7019 17.2922 12.7018 17.0711C12.7017 16.8501 12.7895 16.638 12.9457 16.4817L16.4816 12.9467C16.6378 12.7904 16.8497 12.7027 17.0707 12.7027C17.2917 12.7027 17.5036 12.7904 17.6599 12.9467ZM7.34822 11.4733L6.75905 12.0625C6.68094 12.1406 6.63706 12.2466 6.63706 12.3571C6.63706 12.4676 6.68094 12.5735 6.75905 12.6517L7.34822 13.2408C7.42635 13.319 7.53232 13.3628 7.6428 13.3628C7.75329 13.3628 7.85925 13.319 7.93738 13.2408L8.52655 12.6517C8.60466 12.5735 8.64855 12.4676 8.64855 12.3571C8.64855 12.2466 8.60466 12.1406 8.52655 12.0625L7.93738 11.4733C7.85925 11.3952 7.75329 11.3513 7.6428 11.3513C7.53232 11.3513 7.42635 11.3952 7.34822 11.4733ZM7.05322 2.34001C7.20944 2.49628 7.29721 2.7082 7.29721 2.92917C7.29721 3.15014 7.20944 3.36207 7.05322 3.51834L3.51822 7.05334C3.44085 7.13076 3.34898 7.19219 3.24787 7.23412C3.14676 7.27604 3.03839 7.29764 2.92893 7.29768C2.81947 7.29771 2.71108 7.27619 2.60994 7.23434C2.5088 7.19249 2.41689 7.13113 2.33947 7.05376C2.26204 6.97639 2.20062 6.88452 2.15869 6.78341C2.11677 6.6823 2.09517 6.57393 2.09513 6.46447C2.09509 6.35501 2.11661 6.24662 2.15847 6.14548C2.20032 6.04434 2.26168 5.95243 2.33905 5.87501L5.87489 2.34001C6.03116 2.18378 6.24308 2.09602 6.46405 2.09602C6.68502 2.09602 6.89694 2.18378 7.05322 2.34001Z" fill="white"/>
</g>
<defs>
<clipPath id="clip0_187_2478">
<rect width="20" height="20" fill="white"/>
</clipPath>
</defs>
</svg>
