<svg width="20" height="20" viewBox="0 0 20 20" fill="none" xmlns="http://www.w3.org/2000/svg">
<g clip-path="url(#clip0_187_2469)">
<path d="M11.0501 2.74998C11.1805 2.65668 11.3331 2.59923 11.4927 2.58336C11.6523 2.56749 11.8132 2.59376 11.9595 2.65954C12.1057 2.72533 12.2321 2.82833 12.3261 2.95825C12.4201 3.08818 12.4784 3.24049 12.4951 3.39998L12.5001 3.49498V16.505C12.5001 16.6653 12.4581 16.8229 12.3782 16.962C12.2983 17.101 12.1834 17.2167 12.0448 17.2974C11.9062 17.3781 11.7489 17.421 11.5885 17.4219C11.4282 17.4228 11.2704 17.3816 11.1309 17.3025L11.0509 17.2508L5.56675 13.3333H3.33341C2.91293 13.3334 2.50794 13.1746 2.19962 12.8887C1.89131 12.6028 1.70245 12.2109 1.67091 11.7916L1.66675 11.6666V8.33331C1.66662 7.91283 1.82542 7.50784 2.11133 7.19952C2.39724 6.8912 2.78912 6.70235 3.20841 6.67081L3.33341 6.66664H5.56675L11.0501 2.74998ZM16.3892 5.65248C17.0015 6.19911 17.4912 6.86904 17.8263 7.6183C18.1614 8.36756 18.3342 9.17921 18.3334 9.99998C18.3342 10.8207 18.1614 11.6324 17.8263 12.3817C17.4912 13.1309 17.0015 13.8008 16.3892 14.3475C16.3079 14.4217 16.2127 14.479 16.1091 14.5162C16.0055 14.5534 15.8955 14.5696 15.7856 14.5641C15.6756 14.5585 15.5679 14.5312 15.4685 14.4838C15.3692 14.4363 15.2802 14.3697 15.2068 14.2877C15.1334 14.2056 15.0769 14.1099 15.0407 14.0059C15.0045 13.902 14.9892 13.7919 14.9958 13.682C15.0024 13.5721 15.0307 13.4646 15.079 13.3657C15.1274 13.2668 15.1949 13.1785 15.2776 13.1058C15.7152 12.7155 16.0653 12.2369 16.3047 11.7016C16.5441 11.1663 16.6675 10.5864 16.6667 9.99998C16.6667 8.76664 16.1317 7.65831 15.2776 6.89414C15.1949 6.82148 15.1274 6.73315 15.079 6.63425C15.0307 6.53536 15.0024 6.42787 14.9958 6.31798C14.9892 6.20809 15.0045 6.09799 15.0407 5.99403C15.0769 5.89007 15.1334 5.79432 15.2068 5.7123C15.2802 5.63028 15.3692 5.56363 15.4685 5.51618C15.5679 5.46874 15.6756 5.44145 15.7856 5.43589C15.8955 5.43032 16.0055 5.4466 16.1091 5.48378C16.2127 5.52095 16.3079 5.57829 16.3892 5.65248ZM14.7226 7.51581C15.0723 7.82809 15.352 8.21077 15.5434 8.63874C15.7349 9.06671 15.8337 9.53031 15.8334 9.99914C15.834 10.4683 15.7353 10.9322 15.5439 11.3605C15.3524 11.7888 15.0725 12.1717 14.7226 12.4841C14.5645 12.6245 14.3591 12.6996 14.1478 12.6941C13.9365 12.6887 13.7352 12.6032 13.5846 12.4549C13.434 12.3066 13.3453 12.1066 13.3366 11.8955C13.3279 11.6843 13.3997 11.4777 13.5376 11.3175L13.6109 11.2425C13.9526 10.9358 14.1667 10.4933 14.1667 9.99998C14.1677 9.57324 14.0042 9.16254 13.7101 8.85331L13.6109 8.75748C13.5282 8.68481 13.4607 8.59648 13.4124 8.49759C13.364 8.39869 13.3357 8.2912 13.3291 8.18131C13.3226 8.07142 13.3378 7.96132 13.374 7.85736C13.4102 7.7534 13.4667 7.65765 13.5401 7.57563C13.6136 7.49362 13.7025 7.42696 13.8018 7.37952C13.9012 7.33207 14.0089 7.30478 14.1189 7.29922C14.2288 7.29366 14.3388 7.30994 14.4424 7.34711C14.546 7.38429 14.6412 7.44162 14.7226 7.51581Z" fill="white"/>
</g>
<defs>
<clipPath id="clip0_187_2469">
<rect width="20" height="20" fill="white"/>
</clipPath>
</defs>
</svg>
