<svg width="20" height="20" viewBox="0 0 20 20" fill="none" xmlns="http://www.w3.org/2000/svg">
<path d="M10 2C7.3085 2 5.1 4.10333 5.1 6.66667V7.33333H4.4C3.63 7.33333 3 7.93333 3 8.66667V16.6667C3 17.4 3.63 18 4.4 18H15.6C16.37 18 17 17.4 17 16.6667V8.66667C17 7.93333 16.37 7.33333 15.6 7.33333H14.9V6.66667C14.9 4.10333 12.6915 2 10 2ZM10 3.33333C11.9285 3.33333 13.5 4.83 13.5 6.66667V7.33333H6.5V6.66667C6.5 4.83 8.0715 3.33333 10 3.33333ZM10 9.33333C11.96 9.33333 13.5 10.8 13.5 12.6667C13.5 14.5333 11.96 16 10 16C8.04 16 6.5 14.5333 6.5 12.6667C6.5 10.8 8.04 9.33333 10 9.33333ZM10 10.6667C8.81 10.6667 7.9 11.5333 7.9 12.6667C7.9 13.8 8.81 14.6667 10 14.6667C11.19 14.6667 12.1 13.8 12.1 12.6667C12.1 12.4667 12.0342 12.2627 12.0342 12.0627C11.8242 12.396 11.47 12.6667 11.05 12.6667C10.49 12.6667 10 12.2 10 11.6667C10 11.2667 10.2842 10.9293 10.6342 10.7293C10.4242 10.7293 10.21 10.6667 10 10.6667Z" fill="white"/>
</svg>
